<?xml version="1.0" encoding="utf-8"?>
<!-- Generator: Adobe Illustrator 16.0.3, SVG Export Plug-In . SVG Version: 6.00 Build 0)  -->
<!DOCTYPE svg PUBLIC "-//W3C//DTD SVG 1.1//EN" "http://www.w3.org/Graphics/SVG/1.1/DTD/svg11.dtd">
<svg version="1.1" id="Layer_2" xmlns="http://www.w3.org/2000/svg" xmlns:xlink="http://www.w3.org/1999/xlink" x="0px" y="0px"
	 width="96px" height="96px" viewBox="0 0 96 96" enable-background="new 0 0 96 96" xml:space="preserve">
<g>
	<circle fill="#C4CED4" cx="48.858" cy="50.212" r="39.078"/>
	<path fill="#0067AC" d="M48.858,89.953c-21.913,0-39.74-17.828-39.74-39.742c0-21.913,17.827-39.74,39.74-39.74
		c21.914,0,39.742,17.828,39.742,39.74C88.601,72.125,70.772,89.953,48.858,89.953z M48.858,11.795
		c-21.183,0-38.416,17.234-38.416,38.416c0,21.184,17.233,38.417,38.416,38.417c21.184,0,38.416-17.233,38.416-38.417
		C87.274,29.029,70.042,11.795,48.858,11.795z"/>
</g>
<g>
	<path d="M48.855,88.867c-21.331,0-38.684-17.354-38.684-38.685c0-21.33,17.354-38.683,38.684-38.683
		c21.33,0,38.684,17.353,38.684,38.683C87.539,71.514,70.186,88.867,48.855,88.867z M48.855,12.273
		c-20.904,0-37.91,17.006-37.91,37.91c0,20.904,17.006,37.911,37.91,37.911c20.903,0,37.911-17.007,37.911-37.911
		C86.767,29.279,69.759,12.273,48.855,12.273z"/>
</g>
<g>
	<path d="M48.855,88.808c-21.298,0-38.625-17.326-38.625-38.625c0-21.297,17.327-38.624,38.625-38.624
		c21.298,0,38.625,17.327,38.625,38.624C87.48,71.481,70.153,88.808,48.855,88.808z M48.855,12.214
		c-20.937,0-37.97,17.033-37.97,37.969c0,20.938,17.033,37.971,37.97,37.971s37.97-17.033,37.97-37.971
		C86.825,29.247,69.792,12.214,48.855,12.214z"/>
</g>
<g>
	<path d="M64.457,16.218c-0.871-1.542-8.443-4.897-15.592-4.897c-7.147,0-14.719,3.355-15.59,4.897v9.228h31.191L64.457,16.218z"/>
	<path fill="#0067AC" d="M64.968,25.949H32.772v-9.863l0.065-0.115c0.971-1.719,8.582-5.152,16.028-5.152
		c7.447,0,15.058,3.433,16.028,5.152l0.065,0.115L64.968,25.949z M33.777,24.944h30.186l-0.008-8.576
		c-1.033-1.369-8.284-4.544-15.09-4.544s-14.056,3.174-15.088,4.544V24.944z"/>
</g>
<path fill="#0067AC" d="M64.909,25.889H32.832v-9.788L32.889,16c0.979-1.73,8.817-5.122,15.977-5.122c7.16,0,15,3.392,15.978,5.122
	l0.058,0.102L64.909,25.889z M33.718,25.002h30.304l-0.009-8.654c-1.018-1.405-8.172-4.584-15.148-4.584
	c-6.976,0-14.129,3.178-15.147,4.584V25.002z"/>
<g>
	<g>
		<path d="M60.269,7.58c-3.99-1.886-7.633-2.443-11.547-2.483c-4.869-0.05-9.402,1.083-11.548,2.322v16.979h23.101L60.269,7.58z"/>
		<path fill="#0067AC" d="M60.778,24.9H36.67V7.128l0.251-0.146c2.062-1.191,6.414-2.392,11.488-2.392
			c0.105,0,0.211,0.001,0.317,0.002c4.587,0.047,8.102,0.805,11.757,2.532l0.288,0.137L60.778,24.9z M37.676,23.894h22.095
			L59.765,7.901C56.353,6.334,53.027,5.644,48.716,5.6c-0.103-0.001-0.205-0.002-0.307-0.002c-4.656,0-8.742,1.073-10.733,2.118
			V23.894z"/>
	</g>
</g>
<g>
	<path fill="#0067AC" d="M60.719,24.841H36.729V7.162l0.222-0.129c2.055-1.186,6.394-2.383,11.458-2.383
		c0.105,0,0.211,0.001,0.316,0.002c4.577,0.047,8.087,0.802,11.733,2.526l0.254,0.12L60.719,24.841z M37.617,23.953H59.83
		l-0.006-16.09c-3.433-1.582-6.772-2.277-11.107-2.322c-0.103-0.001-0.206-0.002-0.308-0.002c-4.69,0-8.806,1.087-10.792,2.142
		V23.953z"/>
</g>
<g>
	<g>
		<path fill="#FFFFFF" d="M44.815,7.775v0.206c-0.193,0.086-0.217,0.212-0.217,0.367v7.978c0,0.154,0.023,0.269,0.217,0.251v0.206
			l-1.475,0.195v-0.206c0.14-0.037,0.179-0.116,0.179-0.236c0-0.224-0.194-0.395-2.244-4.91v5.271c0,0.154,0.023,0.269,0.217,0.251
			v0.205l-1.475,0.393v-0.207c0.194-0.086,0.217-0.211,0.217-0.367V9.246c0-0.154-0.023-0.269-0.217-0.251V8.79
			c0.196-0.074,1.693-0.462,1.871-0.498v0.207c-0.179,0.064-0.218,0.177-0.218,0.28c0,0.189,1.343,3.037,1.887,4.214V8.494
			c0-0.207-0.062-0.275-0.163-0.266V8.022C43.542,7.977,44.631,7.787,44.815,7.775z"/>
		<path fill="#FFFFFF" d="M39.902,17.897v-0.431l0.069-0.031c0.134-0.059,0.148-0.127,0.148-0.261V9.246
			c0-0.138-0.015-0.138-0.065-0.138l-0.152,0.013V8.708l0.075-0.028c0.21-0.079,1.728-0.469,1.889-0.502l0.138-0.027v0.428
			l-0.076,0.027c-0.124,0.045-0.141,0.109-0.141,0.172c0.028,0.192,1.011,2.305,1.539,3.439l0.116,0.251V8.494
			c0-0.125-0.025-0.152-0.025-0.152L43.29,8.354l-0.01-0.126V7.937l0.082-0.025c0.161-0.049,1.257-0.24,1.447-0.251l0.123-0.008
			v0.404l-0.069,0.031c-0.133,0.059-0.148,0.128-0.148,0.261v7.978c0,0.161,0.026,0.142,0.092,0.135l0.126-0.011v0.433l-1.707,0.226
			v-0.427l0.086-0.022c0.076-0.021,0.093-0.042,0.093-0.125c0-0.083-0.056-0.198-0.322-0.754c-0.28-0.583-0.783-1.632-1.69-3.624
			v4.739c0,0.161,0.026,0.142,0.092,0.136l0.125-0.011v0.421L39.902,17.897z M40.134,8.885c0.217,0.045,0.217,0.278,0.217,0.36
			v7.929c0,0.151-0.024,0.301-0.179,0.412l1.205-0.328c-0.218-0.044-0.218-0.278-0.218-0.36v-5.271l0.221-0.048
			c1.047,2.307,1.608,3.476,1.909,4.104c0.306,0.638,0.345,0.718,0.345,0.854c0,0.146-0.054,0.248-0.162,0.308l1.212-0.162
			c-0.203-0.052-0.203-0.277-0.203-0.357V8.348c0-0.162,0.029-0.325,0.217-0.438V7.905c-0.292,0.04-0.943,0.154-1.189,0.207v0.019
			c0.082,0.035,0.163,0.129,0.163,0.363v4.499l-0.22,0.048l-0.337-0.725c-1.058-2.273-1.561-3.382-1.561-3.537
			c0-0.143,0.06-0.255,0.174-0.331c-0.405,0.099-1.306,0.336-1.597,0.424V8.885z"/>
	</g>
	<g>
		<path fill="#FFFFFF" d="M47.021,7.906c0-0.105-0.022-0.186-0.217-0.208v-0.14h2.957c0.84,0,1.452,0.954,1.452,2.105
			c0,0.699-0.31,2.107-0.744,2.247v0.023c0.52,0.21,0.9,1.117,0.9,1.979c0,0.931-0.466,2.701-1.568,2.701h-2.997v-0.14
			c0.194-0.024,0.217-0.105,0.217-0.21V7.906z M48.186,11.329h1.056c0.668,0,0.839-1.048,0.839-1.513
			c0-0.466-0.171-1.024-0.839-1.024h-1.056V11.329z M48.186,15.378h1.32c0.543,0,0.761-1.164,0.761-1.675
			c0-0.513-0.218-1.188-0.761-1.188h-1.32V15.378z"/>
		<path fill="#FFFFFF" d="M49.801,16.728h-3.112V16.37l0.102-0.012c0.116-0.014,0.116-0.032,0.116-0.095V7.906
			c0-0.063,0-0.081-0.116-0.094L46.688,7.8V7.442h3.072c0.88,0,1.568,0.976,1.568,2.221c0,0.557-0.221,1.847-0.653,2.25
			c0.509,0.344,0.809,1.244,0.809,1.998C51.484,14.894,50.99,16.728,49.801,16.728z M47.051,16.497h2.75
			c1.014,0,1.452-1.712,1.452-2.585c0-0.847-0.371-1.687-0.828-1.871l-0.072-0.029v-0.163l0.081-0.049
			c0.343-0.11,0.665-1.413,0.665-2.137c0-1.116-0.588-1.991-1.338-1.991h-2.71c0.074,0.068,0.086,0.16,0.086,0.234v8.356
			C47.137,16.337,47.125,16.429,47.051,16.497z M49.506,15.493H48.07v-3.094h1.436c0.576,0,0.876,0.656,0.876,1.304
			C50.382,14.181,50.174,15.493,49.506,15.493z M48.302,15.263h1.204c0.417,0,0.645-1.03,0.645-1.56
			c0-0.432-0.171-1.072-0.645-1.072h-1.204V15.263z M49.241,11.443H48.07V8.676h1.171c0.599,0,0.954,0.426,0.954,1.14
			C50.195,10.269,50.025,11.443,49.241,11.443z M48.302,11.213h0.939c0.59,0,0.723-1.035,0.723-1.397
			c0-0.339-0.094-0.908-0.723-0.908h-0.939V11.213z"/>
	</g>
	<g>
		<path fill="#FFFFFF" d="M54.306,15.14c-0.202,1.254-0.249,1.409-0.249,1.516c0,0.108,0.032,0.187,0.141,0.215l-0.026,0.19
			l-1.382-0.229v-0.214c0.109-0.026,0.155-0.086,0.203-0.36c0.07-0.393,1.415-7.697,1.415-7.804c0-0.125-0.086-0.184-0.156-0.219
			V8.02l2.027,0.519v0.214c-0.086-0.003-0.14,0.019-0.14,0.197c0,0.143,0.954,5.325,1.436,8.167c0.077,0.45,0.123,0.568,0.217,0.593
			v0.215l-1.529-0.392v-0.215c0.109,0.01,0.147-0.07,0.147-0.177c0-0.071-0.232-1.355-0.264-1.595L54.306,15.14z M54.499,13.693
			l1.445,0.37l-0.753-4.122L54.499,13.693z"/>
		<path fill="#FFFFFF" d="M57.907,18.073l-1.76-0.451v-0.431l0.124,0.012c0.011,0.001,0.022-0.013,0.022-0.062
			c-0.003-0.045-0.071-0.439-0.126-0.757c-0.049-0.287-0.101-0.583-0.126-0.743L54.4,15.279c-0.092,0.558-0.148,0.879-0.182,1.074
			c-0.034,0.189-0.046,0.26-0.046,0.302c0,0.089,0.022,0.095,0.053,0.103l0.099,0.025l-0.053,0.41l-1.598-0.264v-0.404l0.089-0.021
			c0.041-0.01,0.072-0.018,0.115-0.268c0.019-0.101,0.118-0.648,0.258-1.411c0.37-2.021,1.141-6.224,1.155-6.382
			c0-0.043-0.023-0.073-0.093-0.109l-0.063-0.032V7.87l2.257,0.579v0.425l-0.121-0.005l-0.015,0.001
			c0.002,0.007-0.004,0.033-0.004,0.081c0.007,0.095,0.244,1.42,0.519,2.954c0.299,1.669,0.671,3.745,0.917,5.194
			c0.053,0.308,0.098,0.476,0.131,0.499l0.088,0.023V18.073z M56.378,17.442l1.291,0.331c-0.103-0.088-0.148-0.286-0.21-0.636
			c-0.244-1.448-0.615-3.523-0.914-5.191c-0.38-2.116-0.522-2.922-0.522-2.996c0-0.065,0-0.24,0.14-0.296V8.628l-1.793-0.458
			c0.067,0.046,0.152,0.132,0.152,0.284c0,0.066-0.291,1.687-1.158,6.416c-0.14,0.762-0.24,1.309-0.258,1.41
			c-0.038,0.221-0.081,0.354-0.2,0.418v0.038l1.142,0.189c-0.059-0.05-0.104-0.132-0.104-0.268c0-0.063,0.011-0.127,0.048-0.343
			c0.037-0.208,0.1-0.56,0.201-1.192l0.02-0.12l2.039,0.449l0.011,0.081c0.015,0.114,0.075,0.469,0.136,0.814
			c0.101,0.581,0.129,0.755,0.129,0.796c0,0.078-0.016,0.141-0.049,0.19c-0.023,0.038-0.059,0.067-0.099,0.084V17.442z
			 M56.091,14.219l-1.726-0.441l0.712-3.858h0.228L56.091,14.219z M54.632,13.608l1.166,0.298l-0.606-3.324L54.632,13.608z"/>
	</g>
</g>
<g>
	<path fill="#CC6D19" d="M29.497,71.672c12.45,10.935,31.117,9.362,41.692-3.51c10.574-12.871,9.055-32.172-3.395-43.105
		c-12.45-10.934-31.117-9.363-41.692,3.509C15.527,41.438,17.047,60.738,29.497,71.672z"/>
	<path d="M48.632,79.597C48.631,79.597,48.632,79.597,48.632,79.597c-7.156,0-14.104-2.641-19.564-7.437
		C16.377,61.016,14.821,41.273,25.6,28.153c5.754-7.004,14.16-11.021,23.06-11.021c7.155,0,14.104,2.641,19.563,7.436
		c12.691,11.146,14.247,30.888,3.468,44.007C65.938,75.579,57.531,79.597,48.632,79.597z M48.66,18.433
		c-8.51,0-16.549,3.844-22.055,10.546c-10.339,12.583-8.849,31.517,3.321,42.204c5.222,4.587,11.865,7.113,18.705,7.113
		c8.51,0,16.549-3.844,22.057-10.547c10.339-12.584,8.848-31.518-3.322-42.205C62.143,20.959,55.5,18.433,48.66,18.433z"/>
</g>
<path d="M48.632,79.536C48.631,79.536,48.632,79.536,48.632,79.536c-7.142,0-14.076-2.635-19.525-7.42
	c-12.667-11.125-14.22-30.829-3.461-43.925c5.744-6.991,14.132-11,23.015-11c7.143,0,14.075,2.635,19.524,7.421
	c12.667,11.125,14.221,30.83,3.462,43.925C65.902,75.528,57.514,79.536,48.632,79.536z M48.66,18.374
	c-8.527,0-16.583,3.852-22.101,10.567C16.201,41.55,17.693,60.52,29.887,71.228c5.233,4.597,11.891,7.128,18.744,7.128
	c8.528,0,16.584-3.852,22.101-10.568c10.36-12.607,8.867-31.578-3.327-42.286C62.171,20.905,55.514,18.374,48.66,18.374z"/>
<g>
	<path d="M48.511,79.533L48.511,79.533c-7.118,0-14.03-2.635-19.461-7.421c-12.625-11.125-14.172-30.829-3.449-43.924
		c5.724-6.991,14.085-11,22.938-11c7.119,0,14.029,2.636,19.462,7.422c12.623,11.125,14.172,30.829,3.449,43.922
		C65.726,75.523,57.364,79.533,48.511,79.533z M48.539,18.37c-8.498,0-16.526,3.852-22.024,10.567
		c-10.324,12.609-8.836,31.579,3.316,42.288c5.215,4.596,11.849,7.126,18.68,7.126c8.499,0,16.526-3.851,22.024-10.565
		c10.325-12.61,8.836-31.58-3.316-42.289C62.003,20.901,55.37,18.37,48.539,18.37z"/>
</g>
<path d="M51.691,78.946c-5.327-6.878-8.479-17.46-8.876-29.8c-0.366-11.379,1.638-22.991,5.497-31.858l1.193,0.519
	c-3.786,8.697-5.751,20.105-5.391,31.299c0.388,12.067,3.444,22.381,8.605,29.044L51.691,78.946z"/>
<path d="M59.603,75.981c-3.077,0-4.278-1.245-4.719-2.454c-0.381-1.045,0.092-2.209,1.127-4.758c0.37-0.91,0.83-2.044,1.344-3.402
	c7.555-20.013,4.795-39.814,2.371-44.701l1.165-0.578c2.498,5.036,5.377,25.348-2.32,45.736c-0.52,1.374-0.982,2.517-1.355,3.434
	c-0.85,2.095-1.318,3.25-1.109,3.824c0.764,2.098,4.487,1.674,6.648,1.232l0.479-0.117l0.309,1.263l-0.515,0.126
	C61.685,75.862,60.553,75.981,59.603,75.981z"/>
<path d="M51.739,78.91c-5.32-6.868-8.469-17.438-8.865-29.765c-0.366-11.372,1.636-22.975,5.493-31.834l1.084,0.471
	c-3.789,8.706-5.756,20.122-5.395,31.325c0.388,12.079,3.449,22.406,8.618,29.077L51.739,78.91z"/>
<path d="M45.69,75.354c-6.903,0-13.006-1.549-16.512-3.09l0.523-1.19c4.075,1.791,11.8,3.594,20.16,2.78
	c7.04-0.684,17.067-3.527,24.863-13.188l1.011,0.816c-6.395,7.926-15.297,12.651-25.748,13.667
	C48.532,75.29,47.095,75.354,45.69,75.354z"/>
<path d="M45.689,75.294c-6.894,0-12.987-1.547-16.486-3.085l0.475-1.081c4.082,1.793,11.818,3.599,20.19,2.785
	c7.051-0.686,17.096-3.534,24.902-13.211l0.92,0.742c-6.385,7.912-15.273,12.631-25.708,13.645
	C48.528,75.231,47.092,75.294,45.689,75.294z"/>
<path d="M42.242,78.808l-0.631-1.137c0.465-0.259,1.509-1.048,1.168-2.803c-0.202-1.037-1.594-2.282-3.068-3.6
	c-0.987-0.885-2.106-1.886-3.056-2.987c-4.264-4.948-7.039-10.398-8.248-16.201c-0.989-4.75-0.938-9.752,0.152-14.869
	c2.128-9.997,7.515-17.042,7.744-17.337l1.028,0.796c-0.221,0.285-5.434,7.102-7.5,16.812c-2.367,11.114,0.26,21.191,7.809,29.952
	c0.894,1.037,1.933,1.967,2.938,2.865c1.713,1.531,3.192,2.855,3.478,4.321C44.573,77.283,42.798,78.498,42.242,78.808z"/>
<path d="M42.214,78.756l-0.574-1.033c0.476-0.265,1.546-1.073,1.198-2.865c-0.206-1.057-1.605-2.309-3.087-3.634
	c-0.986-0.882-2.104-1.882-3.051-2.98c-4.257-4.94-7.027-10.383-8.234-16.175c-0.987-4.741-0.937-9.735,0.152-14.846
	c2.125-9.982,7.504-17.018,7.732-17.313l0.935,0.723c-0.221,0.286-5.44,7.114-7.511,16.836c-2.371,11.133,0.261,21.228,7.822,30.003
	c0.896,1.04,1.937,1.972,2.943,2.871c1.705,1.524,3.178,2.843,3.459,4.289C44.508,77.255,42.761,78.451,42.214,78.756z"/>
<path d="M59.604,75.92c-3.048,0-4.231-1.223-4.664-2.413c-0.373-1.023,0.098-2.181,1.127-4.715c0.369-0.911,0.83-2.044,1.343-3.404
	c7.561-20.03,4.797-39.854,2.369-44.747l1.06-0.525c2.495,5.028,5.368,25.318-2.323,45.689c-0.519,1.374-0.981,2.515-1.354,3.432
	c-0.855,2.108-1.327,3.271-1.109,3.867c0.74,2.036,4.065,1.813,6.728,1.268l0.469-0.115l0.28,1.148l-0.492,0.119
	C61.688,75.801,60.555,75.92,59.604,75.92z"/>
<g>
	<g>
		<g>
			<g>
				<path d="M47.616,29.388c-26.289,0-35.604,9.503-40.062,11.94v29.905c1.554,1.188,3.147,2.036,4.25,2.468
					c3.061-2.579,6.71-5.026,11.304-6.794c5.633-2.271,15.526-4.61,24.787-4.651c9.738-0.044,18.134,1.249,26.388,4.805
					c4.595,1.768,8.307,4.268,11.367,6.848c1.103-0.433,2.76-1.524,4.275-2.508V41.533C83.348,36.938,75.779,29.388,47.616,29.388z"
					/>
				<path d="M85.601,74.211l-0.12-0.101c-3.611-3.043-7.305-5.268-11.292-6.803c-7.691-3.313-15.651-4.788-25.82-4.788h-0.472
					c-9.221,0.042-19.044,2.357-24.689,4.632c-3.988,1.535-7.661,3.743-11.233,6.753l-0.12,0.102l-0.147-0.058
					c-1.334-0.522-2.947-1.46-4.314-2.505l-0.104-0.08V41.172l0.138-0.076c0.669-0.365,1.473-0.909,2.403-1.538
					c5.392-3.647,15.429-10.435,37.785-10.435c25.716,0,34.349,6.295,40.652,10.893c0.626,0.457,1.219,0.889,1.81,1.301l0.112,0.08
					v30.146l-0.356,0.233c-1.482,0.962-3.016,1.958-4.086,2.377L85.601,74.211z M48.368,61.99c10.244,0,18.269,1.489,26.02,4.827
					c3.989,1.535,7.693,3.757,11.311,6.785c1.016-0.432,2.454-1.366,3.848-2.271l0.115-0.076V41.672
					c-0.557-0.392-1.115-0.799-1.705-1.229c-6.244-4.555-14.796-10.79-40.34-10.79c-22.194,0-32.144,6.728-37.489,10.343
					c-0.879,0.594-1.647,1.113-2.308,1.487v29.618c1.257,0.947,2.708,1.794,3.936,2.296c3.579-2.996,7.263-5.2,11.258-6.738
					c5.688-2.292,15.59-4.626,24.881-4.668L48.368,61.99z"/>
			</g>
		</g>
	</g>
</g>
<g>
	<g>
		<g>
			<path d="M85.612,74.144l-0.094-0.079c-3.616-3.046-7.315-5.275-11.31-6.812c-7.696-3.315-15.663-4.792-25.841-4.792h-0.473
				c-9.229,0.041-19.061,2.359-24.711,4.636c-3.993,1.537-7.671,3.748-11.248,6.762l-0.094,0.079l-0.114-0.045
				c-1.329-0.521-2.937-1.454-4.299-2.496l-0.081-0.062V41.206l0.107-0.058c0.672-0.368,1.477-0.912,2.408-1.543
				c5.387-3.642,15.414-10.423,37.752-10.423c25.696,0,34.32,6.288,40.617,10.88c0.627,0.458,1.221,0.891,1.81,1.303l0.089,0.062
				v30.085l-0.331,0.214c-1.48,0.962-3.011,1.956-4.075,2.373L85.612,74.144z M48.368,62.049c10.235,0,18.254,1.487,25.997,4.823
				c3.994,1.537,7.702,3.762,11.323,6.798c1.022-0.427,2.479-1.373,3.889-2.289l0.143-0.093V41.641
				c-0.563-0.396-1.131-0.809-1.729-1.246C81.74,35.836,73.18,29.594,47.616,29.594c-22.212,0-32.171,6.734-37.521,10.353
				c-0.892,0.604-1.669,1.129-2.335,1.503v29.682c1.277,0.966,2.759,1.829,4.006,2.334c3.583-3.002,7.27-5.212,11.269-6.75
				c5.684-2.291,15.577-4.623,24.86-4.664L48.368,62.049z"/>
		</g>
	</g>
</g>
<g>
	<g>
		<path fill="#0067AC" d="M48.753,60.774c9.739-0.013,19.325,1.992,25.479,4.616c4.594,1.768,8.474,4.139,11.535,6.718
			c1.076-0.261,2.258-1.146,2.707-1.467V34.853c-7.955-6.992-22.737-12.061-39.721-12.061c-19.908,0-32.257,6.02-39.721,12.009
			v35.766c0,0,1.271,1.025,2.602,1.445c3.302-2.615,7.104-5.083,11.564-6.698C30.868,62.471,39.63,60.839,48.753,60.774z"/>
		<path d="M85.655,72.58l-0.168-0.141c-3.221-2.714-7.166-5.012-11.412-6.645c-6.641-2.832-16.303-4.587-25.23-4.587h-0.091
			c-8.824,0.062-17.61,1.622-25.406,4.512c-3.813,1.381-7.556,3.55-11.446,6.632l-0.18,0.142l-0.219-0.068
			c-1.392-0.44-2.688-1.479-2.743-1.522L8.6,70.772v-36.18l0.162-0.13C18.769,26.432,32.224,22.36,48.753,22.36
			c16.138,0,31.468,4.663,40.007,12.167l0.147,0.129v36.209l-0.285,0.202c-0.542,0.39-1.67,1.2-2.753,1.462L85.655,72.58z
			 M48.845,60.342c9.037,0,18.83,1.781,25.557,4.65c4.243,1.632,8.208,3.927,11.469,6.639c0.818-0.259,1.689-0.867,2.171-1.212
			v-35.37c-8.417-7.297-23.444-11.823-39.288-11.823c-16.237,0-29.455,3.965-39.288,11.783v35.343
			c0.344,0.255,1.191,0.845,2.085,1.175c3.897-3.063,7.661-5.229,11.5-6.62c7.886-2.923,16.774-4.502,25.7-4.564H48.845z"/>
	</g>
</g>
<g>
	<path d="M85.67,72.516l-0.144-0.122c-3.228-2.717-7.179-5.019-11.43-6.654c-6.646-2.834-16.316-4.591-25.252-4.591h-0.091
		c-8.832,0.063-17.624,1.623-25.426,4.516c-3.819,1.384-7.567,3.556-11.462,6.641l-0.156,0.123l-0.189-0.061
		c-1.381-0.437-2.669-1.467-2.723-1.511l-0.14-0.112V34.621l0.14-0.111c9.996-8.023,23.439-12.091,39.955-12.091
		c16.123,0,31.439,4.657,39.967,12.152l0.128,0.112v36.151l-0.26,0.185c-0.539,0.388-1.661,1.193-2.733,1.452L85.67,72.516z
		 M48.845,60.4c9.029,0,18.813,1.781,25.533,4.646c4.249,1.634,8.218,3.934,11.479,6.649c0.851-0.26,1.759-0.899,2.244-1.247V35.021
		c-8.424-7.316-23.478-11.856-39.348-11.856c-16.264,0-29.501,3.975-39.347,11.815v35.401c0.333,0.249,1.222,0.873,2.155,1.211
		c3.902-3.069,7.668-5.239,11.509-6.631c7.88-2.92,16.761-4.498,25.681-4.562H48.845z"/>
</g>
<g>
	<g>
		<path d="M87.903,71.146c-8.351-7.717-23.354-12.511-39.15-12.511c-15.608,0-31.288,4.896-39.017,12.184l-0.531-0.563
			c3.946-3.72,9.84-6.86,17.046-9.08c7.038-2.168,14.818-3.313,22.501-3.313c7.776,0,15.512,1.14,22.372,3.297
			c7.05,2.218,13.034,5.474,17.304,9.419L87.903,71.146z"/>
		<path d="M88.232,38.38C79.997,30.613,64.83,25.787,48.65,25.787c-16.303,0-28.815,3.968-39.375,12.489L8.79,37.672
			c4.82-3.888,9.948-6.779,15.678-8.841c7.044-2.534,15.181-3.817,24.183-3.817c16.37,0,31.739,4.906,40.113,12.805L88.232,38.38z"
			/>
	</g>
</g>
<g>
	<g>
		<path d="M87.943,71.104c-8.362-7.727-23.38-12.527-39.19-12.527c-15.623,0-31.319,4.903-39.058,12.2l-0.45-0.478
			c3.94-3.714,9.826-6.849,17.023-9.066c7.032-2.166,14.807-3.311,22.484-3.311c7.77,0,15.5,1.139,22.354,3.294
			c7.042,2.214,13.018,5.467,17.281,9.405L87.943,71.104z"/>
		<path d="M88.272,38.338c-8.246-7.779-23.428-12.61-39.622-12.61c-16.317,0-28.841,3.973-39.412,12.501l-0.412-0.51
			c4.814-3.885,9.938-6.773,15.661-8.832c7.039-2.531,15.167-3.814,24.163-3.814c16.354,0,31.71,4.899,40.072,12.788L88.272,38.338z
			"/>
	</g>
</g>
<path fill="#FFFFFF" d="M13.429,64.232v-2.499l1.105-0.668V39.734l-1.105,0.715v-2.557c2.326-1.6,7.181-4.029,7.807-4.227v8.105
	l-2.126-0.662v-3.848l-1.235,0.586l0.035,9.354l1.138-0.564v-1.268l1.286-0.522v5.267l-1.286,0.567v-1.313l-1.15,0.494l0.032,9.453
	l1.181-0.521v-4.45l2.126-2.228v8.322C19.237,61.113,16.1,62.599,13.429,64.232z"/>
<path fill="#FFFFFF" d="M22.25,60.049l-0.001-2.451l1.103-0.402l1.898-22.531l-1.038,0.387v-2.568
	c2.103-0.813,5.621-1.829,6.984-2.119v2.482l-0.875,0.266l2.237,21.532l0.937-0.135v2.508c-0.756,0.148-3.098,0.553-5.124,1.104
	v-2.445l0.943-0.27l-0.51-6.555l-1.976,0.735l-0.254,6.61l1.087-0.337v2.468C26.378,58.673,23.738,59.453,22.25,60.049z
	 M28.244,45.993l-0.699-10.759L27.04,46.421L28.244,45.993z"/>
<path fill="#FFFFFF" d="M38.401,35.865c0,0-0.029-2.537-0.037-3.225c-0.012-1.008,0-1.008-0.675-0.945
	c-0.791,0.072-0.556,0.201-0.548,0.94c0.009,0.792,0.021,1.481,0.021,1.866c0,6.885,5.163,6.563,5.163,13.246l0.039,3.735
	c0.049,4.299-0.236,4.26-3.623,4.765c-3.032,0.452-4.174,0.887-4.333-3.478l-0.046-4.03l3.21,1.367c0,0,0.014,1.669,0.03,2.359
	c0.021,0.861,0.122,0.841,0.826,0.73c0.582-0.091,0.403,0.009,0.394-0.869c-0.013-1.157-0.035-3.066-0.041-3.545
	c-0.068-5.966-5.208-6.799-5.268-12.052l-0.035-3.123c-0.052-4.536-0.195-3.99,4.129-4.635c2.416-0.361,3.882-0.515,3.95,3.348
	v4.865L38.401,35.865z"/>
<path fill="#FFFFFF" d="M54.165,55.766v-2.604l1.252,0.083V31.41l-1.252-0.148v-2.522c2.688,0.148,5.446,0.505,7.681,0.897v8.553
	l-2.063-1.963v-4.357l-1.134-0.148v9.803l1.134,0.172v-1.276l1.311,0.187v5.543l-1.311-0.265v-1.421l-1.134-0.174v9.32l1.134,0.146
	v-4.306l2.063-0.964v8.186C59.944,56.404,57.263,55.865,54.165,55.766z"/>
<path fill="#FFFFFF" d="M68.001,30.914C71.294,31.76,72.286,33.4,72.3,37l0.006,3.404c0.007,1.75-0.91,3.602-2.857,2.938v0.066
	c2.204,0.642,2.557,1.914,2.566,4.588l0.017,6.891c0.007,2.279,0.349,3.383,0.55,4.358l-3.276-0.982
	c-0.244-0.924-0.296-1.473-0.3-3.092l-0.02-7.478c-0.005-1.453-0.308-2.673-1.546-2.941v10.653l0.753,0.203l-0.058,2.375
	c-0.553-0.132-3.583-0.911-5.11-1.107v-2.385l1.239,0.172V32.608l-1.239-0.258v-2.557C63.024,29.794,67.062,30.67,68.001,30.914z
	 M67.404,42.043l0.433,0.092c0.568,0.123,1.156-0.345,1.151-1.468l-0.012-4.792c-0.005-1.123-0.594-1.381-1.164-1.505l-0.408-0.091
	V42.043z"/>
<path fill="#FFFFFF" d="M73.578,59.592v-2.606l0.853,0.297l0.003-21.817l-0.855-0.356V32.68c1.494,0.589,5.203,2.195,5.766,2.57
	l1.713,19.725l0.016-16.191l-0.539-0.331l-0.021-2.547c0.896,0.531,1.825,0.992,4.099,2.623l0.028,2.562l-0.904-0.639l0.044,23.802
	c-0.192-0.11-3.345-1.907-4.046-2.214l-2.355-22.773v21.761C77.378,61.026,74.092,59.712,73.578,59.592z"/>
<path fill="#FFFFFF" d="M52.82,28.689v8.461l-2.271-0.872v-5.141h-1.131v21.82l1.192,0.019v2.621
	c-0.707-0.065-4.461,0.025-5.541,0.054v-2.675h1.188V31.138h-1.106l0.005,5.14l-2.263,0.912l-0.021-8.472
	C43.608,28.559,52.045,28.448,52.82,28.689z"/>
<g>
	<g>
		<polygon points="12.806,38.254 12.249,38.582 12.249,41.137 12.806,40.811 		"/>
		<path d="M12.19,41.241v-2.693l0.675-0.397v2.693L12.19,41.241z M12.308,38.615v2.42l0.439-0.26v-2.418L12.308,38.615z"/>
	</g>
	<g>
		<polygon points="13.353,41.197 13.91,40.893 13.91,60.645 13.353,60.966 		"/>
		<path d="M13.293,61.067V41.162l0.675-0.369v19.886L13.293,61.067z M13.412,41.232v19.631l0.439-0.253V40.992L13.412,41.232z"/>
	</g>
	<g>
		<polyline points="12.806,62.094 12.812,64.583 12.254,64.923 12.254,62.423 12.806,62.094 		"/>
		<path d="M12.195,65.028v-2.64l0.67-0.397l0.005,2.626L12.195,65.028z M12.313,62.455v2.362l0.439-0.268l-0.006-2.353
			L12.313,62.455z"/>
	</g>
	<g>
		<polygon points="20.057,41.961 18.483,41.467 18.483,42.122 20.057,42.614 		"/>
		<path d="M20.115,42.694l-1.691-0.528v-0.779l1.691,0.531V42.694z M18.542,42.078l1.455,0.455v-0.529l-1.455-0.457V42.078z"/>
	</g>
	<g>
		<polygon points="18.534,54.006 20.513,51.958 20.513,51.04 18.534,53.12 		"/>
		<path d="M18.475,54.151v-1.054l2.098-2.206v1.091L18.475,54.151z M18.593,53.145v0.715l1.862-1.926v-0.746L18.593,53.145z"/>
	</g>
	<g>
		<polygon points="23.588,32.712 23.581,35.222 23.031,35.441 23.031,32.873 		"/>
		<path d="M22.972,35.527v-2.699l0.676-0.195l-0.008,2.629L22.972,35.527z M23.09,32.917v2.437l0.432-0.172l0.006-2.391
			L23.09,32.917z"/>
	</g>
	<g>
		<polygon points="22.729,56.801 24.577,35.63 24.021,35.846 22.171,56.972 		"/>
		<path d="M22.104,57.055l1.86-21.251l0.68-0.263l-0.008,0.094l-1.852,21.211L22.104,57.055z M24.076,35.888L22.238,56.89
			l0.436-0.134L24.51,35.72L24.076,35.888z"/>
	</g>
	<g>
		<polygon points="28.247,49.77 28.629,55.006 28.072,55.124 27.679,49.94 		"/>
		<path d="M28.019,55.195l-0.402-5.297l0.684-0.207l0.392,5.361L28.019,55.195z M27.741,49.984l0.385,5.068l0.441-0.094
			l-0.374-5.112L27.741,49.984z"/>
	</g>
	<g>
		<path d="M33.741,48.392l0.057,4.935c0.019,0.196,0.146,0.548,0.163,0.63l-0.545,0.084c0,0-0.108-0.179-0.146-0.338
			c-0.104-0.426-0.063-5.54-0.063-5.54L33.741,48.392z"/>
		<path d="M33.386,54.105l-0.021-0.034c-0.005-0.008-0.113-0.188-0.154-0.354c-0.104-0.43-0.066-5.346-0.065-5.556l0-0.089
			l0.652,0.279l0.057,4.973c0.012,0.127,0.077,0.338,0.12,0.478c0.021,0.064,0.036,0.115,0.042,0.141l0.013,0.062L33.386,54.105z
			 M33.264,48.252c-0.005,0.682-0.03,5.053,0.063,5.437c0.026,0.109,0.088,0.23,0.12,0.287l0.439-0.068
			c-0.007-0.021-0.014-0.044-0.022-0.07c-0.045-0.145-0.112-0.362-0.125-0.506l-0.057-4.9L33.264,48.252z"/>
	</g>
	<g>
		<path d="M37.524,47.503c-0.331-2.131-1.277-3.069-3.492-6.151c-0.354-0.494-1.441-2.229-1.484-3.098
			c-0.172-0.787-0.323-5.294-0.23-5.852c0.061-0.361-0.128-1.765,1.013-2.524c-0.421,0.458-0.389,1.196-0.44,2.442
			c-0.051,1.245,0.042,4.993,0.181,5.802c0.175,1.017,0.853,2.126,1.367,3c0.569,0.968,3.554,3.938,3.662,6.604
			c0.021,0.242,0.046,1.029,0.035,1.488l-0.526-0.213C37.64,48.869,37.592,47.857,37.524,47.503z"/>
		<path d="M38.193,49.301l-0.653-0.264l0.011-0.051c0.028-0.115-0.016-1.109-0.085-1.473c-0.272-1.754-0.957-2.684-2.454-4.719
			c-0.308-0.418-0.649-0.881-1.028-1.408c-0.286-0.398-1.449-2.202-1.495-3.131c-0.175-0.792-0.325-5.289-0.229-5.863
			c0.01-0.06,0.013-0.15,0.017-0.267c0.019-0.577,0.054-1.653,1.022-2.297l0.076,0.089c-0.354,0.386-0.375,0.98-0.409,1.965
			c-0.005,0.139-0.01,0.285-0.016,0.439c-0.053,1.287,0.047,5.022,0.181,5.79c0.164,0.95,0.779,1.995,1.273,2.833l0.086,0.147
			c0.134,0.228,0.403,0.567,0.746,0.999c1.063,1.34,2.841,3.585,2.924,5.631c0.021,0.248,0.046,1.033,0.035,1.493L38.193,49.301z
			 M37.673,48.963l0.405,0.164c0.006-0.463-0.017-1.164-0.037-1.396c-0.082-2.012-1.845-4.236-2.899-5.564
			c-0.344-0.436-0.617-0.779-0.755-1.014l-0.086-0.146c-0.5-0.848-1.121-1.902-1.289-2.873c-0.146-0.846-0.231-4.609-0.182-5.814
			c0.006-0.154,0.012-0.301,0.016-0.439c0.027-0.78,0.045-1.322,0.229-1.721c-0.638,0.615-0.667,1.48-0.682,1.972
			c-0.004,0.12-0.007,0.216-0.019,0.282c-0.088,0.537,0.06,5.055,0.23,5.829c0.043,0.844,1.095,2.549,1.474,3.076
			c0.378,0.526,0.72,0.99,1.028,1.408c1.508,2.052,2.197,2.987,2.475,4.769C37.646,47.82,37.692,48.711,37.673,48.963z"/>
	</g>
	<g>
		<path d="M38.359,37.229c-0.347-0.234-0.312-0.876-0.312-0.876l0.026,0.01l2.542,1.045l0.008,0.705L38.359,37.229z"/>
		<path d="M40.684,38.199l-2.346-0.916c-0.382-0.256-0.351-0.906-0.349-0.934l0.004-0.081l0.102,0.04l2.58,1.059L40.684,38.199z
			 M38.106,36.439c0.004,0.176,0.042,0.576,0.286,0.74l2.171,0.846l-0.007-0.579L38.106,36.439z"/>
	</g>
	<g>
		<polygon points="45.07,37.615 45.635,37.395 45.635,52.335 45.07,52.335 		"/>
		<path d="M45.694,52.394h-0.683V37.574l0.683-0.267V52.394z M45.129,52.275h0.447V37.481l-0.447,0.173V52.275z"/>
	</g>
	<g>
		<polygon points="44.447,53.009 44.447,55.7 43.89,55.7 43.89,53.003 		"/>
		<path d="M44.506,55.759h-0.675v-2.816l0.675,0.008V55.759z M43.949,55.642h0.439v-2.574l-0.439-0.005V55.642z"/>
	</g>
	<g>
		<polygon points="50,37.467 52.283,38.287 52.283,37.615 50,36.795 		"/>
		<path d="M52.342,38.37l-2.4-0.861v-0.798l2.4,0.862V38.37z M50.059,37.426l2.165,0.777v-0.547l-2.165-0.777V37.426z"/>
	</g>
	<g>
		<polygon points="54.2,31.889 54.807,31.96 54.807,52.579 54.185,52.555 		"/>
		<path d="M54.865,52.642l-0.739-0.029v-0.058l0.015-20.731l0.725,0.083V52.642z M54.243,52.498l0.505,0.02V32.012l-0.489-0.057
			L54.243,52.498z"/>
	</g>
	<g>
		<polygon points="53.545,53.105 53.545,55.728 52.938,55.694 52.938,53.088 		"/>
		<path d="M53.604,55.79l-0.725-0.04v-2.723l0.725,0.021V55.79z M52.997,55.639l0.488,0.026v-2.503l-0.488-0.014V55.639z"/>
	</g>
	<g>
		<polygon points="60.61,37.828 60.61,38.631 59.125,37.32 59.125,36.435 		"/>
		<path d="M60.669,38.762l-1.603-1.416v-1.048l1.603,1.505V38.762z M59.186,37.293l1.365,1.207v-0.646l-1.365-1.283V37.293z"/>
	</g>
	<g>
		<polygon points="59.232,48.4 60.839,47.646 60.839,48.302 59.232,49.057 		"/>
		<path d="M59.174,49.149v-0.786l1.725-0.811v0.786L59.174,49.149z M59.291,48.438v0.525l1.489-0.699V47.74L59.291,48.438z"/>
	</g>
	<g>
		<polygon points="63.054,33.188 63.641,33.313 63.643,53.989 63.054,53.892 		"/>
		<path d="M63.701,54.06l-0.706-0.118V33.113l0.705,0.152L63.701,54.06z M63.113,53.841l0.47,0.079l-0.002-20.56l-0.468-0.101
			V53.841z"/>
	</g>
	<g>
		<path d="M72.07,32.113l-0.002,0.828c0.113,0.104,0.511,1.335,0.559,1.779v-2.395L72.07,32.113z"/>
		<path d="M72.568,34.727c-0.051-0.468-0.449-1.656-0.541-1.742l-0.019-0.018l-0.001-0.025l0.004-0.914l0.674,0.258v2.436
			L72.568,34.727z M72.127,32.92c0.104,0.146,0.31,0.756,0.441,1.25v-1.805l-0.439-0.166L72.127,32.92z"/>
	</g>
	<g>
		<polygon points="73.25,35.731 73.811,35.944 73.811,56.424 73.247,56.236 		"/>
		<path d="M73.869,56.506l-0.681-0.229l0.002-20.633l0.679,0.258V56.506z M73.306,56.192l0.445,0.149V35.984l-0.441-0.168
			L73.306,56.192z"/>
	</g>
	<g>
		<polygon points="77.969,50.636 77.936,55.126 78.553,61.462 79.11,61.776 		"/>
		<path d="M79.18,61.885l-0.683-0.386l-0.621-6.366l0.032-4.497l0.118-0.005L79.18,61.885z M78.608,61.426l0.431,0.243l-1.02-9.953
			l-0.024,3.411L78.608,61.426z"/>
	</g>
</g>
<g>
	<path d="M23.198,71.354l0.326-0.249c0.355-0.271,0.381-0.55,0.239-0.737c-0.223-0.29-0.445-0.267-0.759-0.026l-2.129,1.631
		c-0.313,0.24-0.394,0.448-0.171,0.74c0.201,0.261,0.418,0.232,0.692,0.022l0.506-0.388l0.552,0.722l-0.482,0.37
		c-0.593,0.454-1.343,0.475-1.896-0.247c-0.579-0.755-0.364-1.475,0.229-1.929l2.163-1.657c0.594-0.454,1.343-0.475,1.923,0.282
		c0.552,0.72,0.296,1.47-0.332,1.951l-0.309,0.236L23.198,71.354z"/>
	<path d="M21.104,73.819c-0.408,0-0.78-0.205-1.076-0.592c-0.282-0.367-0.398-0.756-0.336-1.123
		c0.056-0.335,0.256-0.643,0.577-0.889l2.164-1.657c0.282-0.216,0.591-0.331,0.892-0.331c0.416,0,0.8,0.216,1.113,0.624
		c0.27,0.353,0.369,0.737,0.288,1.114c-0.075,0.343-0.293,0.661-0.63,0.92l-0.355,0.272l-0.625-0.815l0.373-0.285
		c0.288-0.221,0.373-0.465,0.228-0.654c-0.195-0.255-0.363-0.256-0.676-0.016l-2.129,1.63c-0.155,0.118-0.24,0.22-0.266,0.319
		c-0.027,0.102,0.007,0.21,0.106,0.339c0.168,0.219,0.337,0.22,0.608,0.013l0.553-0.425l0.625,0.815l-0.529,0.406
		C21.722,73.704,21.41,73.819,21.104,73.819z M23.325,69.346c-0.275,0-0.559,0.106-0.821,0.307l-2.163,1.657
		c-0.297,0.228-0.481,0.509-0.532,0.814c-0.056,0.334,0.052,0.691,0.313,1.032c0.273,0.356,0.612,0.544,0.982,0.544
		c0.279,0,0.566-0.106,0.831-0.309l0.436-0.334l-0.48-0.628l-0.459,0.352c-0.332,0.255-0.567,0.237-0.775-0.035
		c-0.121-0.157-0.163-0.301-0.126-0.439c0.033-0.126,0.131-0.247,0.309-0.384l2.128-1.63c0.371-0.283,0.61-0.264,0.842,0.039
		c0.147,0.191,0.158,0.507-0.25,0.819l-0.279,0.213l0.48,0.628l0.261-0.2c0.315-0.241,0.518-0.536,0.587-0.852
		c0.074-0.342-0.018-0.692-0.266-1.017C24.055,69.546,23.703,69.346,23.325,69.346z"/>
</g>
<g>
	<path d="M26.893,74.7c0.487-0.566,1.218-0.741,1.94-0.12c0.723,0.622,0.659,1.37,0.171,1.938l-1.778,2.067
		c-0.487,0.566-1.218,0.741-1.94,0.12c-0.723-0.622-0.66-1.37-0.172-1.937L26.893,74.7z M25.818,77.345
		c-0.258,0.3-0.293,0.521-0.016,0.761s0.491,0.17,0.75-0.13l1.75-2.034c0.258-0.3,0.293-0.521,0.016-0.761s-0.491-0.17-0.75,0.13
		L25.818,77.345z"/>
	<path d="M26.222,79.156c-0.333,0-0.661-0.136-0.975-0.405c-0.351-0.303-0.545-0.66-0.56-1.032c-0.014-0.34,0.118-0.683,0.382-0.989
		l1.779-2.067c0.295-0.344,0.668-0.532,1.05-0.532c0.333,0,0.66,0.136,0.974,0.405c0.352,0.303,0.545,0.66,0.561,1.032
		c0.014,0.341-0.119,0.683-0.383,0.989l-1.778,2.067C26.976,78.968,26.603,79.156,26.222,79.156z M27.898,74.247
		c-0.347,0-0.688,0.175-0.96,0.493l-1.779,2.067c-0.244,0.283-0.366,0.597-0.354,0.907c0.014,0.338,0.193,0.666,0.519,0.946
		c0.292,0.25,0.594,0.378,0.897,0.378c0.347,0,0.687-0.175,0.96-0.493l1.778-2.067c0.244-0.283,0.366-0.597,0.354-0.907
		c-0.013-0.338-0.193-0.666-0.519-0.946C28.503,74.375,28.201,74.247,27.898,74.247z M26.119,78.309L26.119,78.309
		c-0.115,0-0.231-0.052-0.355-0.158c-0.362-0.313-0.199-0.602,0.009-0.844l1.75-2.035c0.175-0.203,0.322-0.294,0.478-0.294
		c0.115,0,0.231,0.053,0.355,0.158c0.363,0.313,0.199,0.602-0.009,0.844l-1.75,2.035C26.421,78.218,26.274,78.309,26.119,78.309z
		 M28,75.096c-0.116,0-0.24,0.081-0.388,0.253l-1.75,2.035c-0.254,0.295-0.259,0.472-0.021,0.677
		c0.241,0.206,0.409,0.176,0.666-0.123l1.75-2.034c0.254-0.296,0.26-0.473,0.022-0.678C28.177,75.139,28.085,75.096,28,75.096z"/>
</g>
<g>
	<path d="M30.54,82.088l2.546-4.639l0.738,0.406l-0.485,3.185l0.013,0.008l1.456-2.653l0.72,0.395l-2.545,4.638l-0.694-0.381
		l0.575-3.454l-0.013-0.007l-1.59,2.897L30.54,82.088z"/>
	<path d="M33.005,83.508l-0.783-0.43l0.533-3.196l-1.472,2.681L30.46,82.11l2.603-4.741l0.827,0.453l-0.449,2.939l1.343-2.448
		l0.823,0.452L33.005,83.508z M32.353,83.015l0.605,0.333l2.489-4.535l-0.616-0.338l-1.457,2.653l-0.088-0.049l-0.006-0.048
		l0.48-3.145l-0.651-0.357l-2.489,4.535l0.616,0.338l1.59-2.897l0.088,0.049l0.006,0.048L32.353,83.015z"/>
</g>
<g>
	<path d="M37.396,85.276l1.558-5.056l2.423,0.748l-0.233,0.756l-1.555-0.479l-0.401,1.302l1.162,0.359l-0.233,0.756l-1.162-0.358
		l-0.691,2.24L37.396,85.276z"/>
	<path d="M38.304,85.618l-0.981-0.303l1.593-5.168l2.535,0.782l-0.268,0.869l-1.554-0.479l-0.366,1.189l1.162,0.358l-0.268,0.869
		l-1.162-0.358L38.304,85.618z M37.47,85.238l0.755,0.232l0.69-2.24l1.162,0.358l0.199-0.645l-1.163-0.357l0.437-1.415l1.554,0.479
		l0.198-0.645l-2.309-0.712L37.47,85.238z"/>
</g>
<g>
	<path d="M44.338,86.924l0.538-5.263l2.421,0.247l-0.08,0.787L45.7,82.541l-0.14,1.355l1.167,0.119l-0.08,0.787l-1.167-0.119
		l-0.158,1.546l1.618,0.165l-0.08,0.788L44.338,86.924z"/>
	<path d="M46.912,87.247l-2.639-0.27l0.006-0.06l0.545-5.322l2.537,0.26l-0.093,0.904l-1.516-0.154l-0.127,1.237l1.166,0.12
		l-0.093,0.905l-1.166-0.12l-0.146,1.428l1.619,0.166L46.912,87.247z M44.402,86.871l2.405,0.247l0.069-0.67l-1.618-0.166
		l0.17-1.663l1.166,0.119l0.069-0.67l-1.167-0.119l0.151-1.474l1.516,0.156l0.069-0.671l-2.303-0.235L44.402,86.871z"/>
</g>
<g>
	<path d="M52.385,87.107l-0.905,0.089l-0.517-5.268l1.27-0.125c1.016-0.1,1.574,0.28,1.686,1.404
		c0.083,0.846-0.212,1.222-0.505,1.391l1,2.31l-0.92,0.091l-0.855-2.119c-0.114,0.026-0.305,0.053-0.464,0.068L52.385,87.107z
		 M52.1,84.203l0.32-0.031c0.489-0.048,0.654-0.248,0.592-0.876c-0.061-0.627-0.262-0.791-0.75-0.743l-0.32,0.031L52.1,84.203z"/>
	<path d="M51.427,87.261l-0.528-5.386l1.329-0.13c0.104-0.01,0.205-0.016,0.298-0.016c0.892,0,1.353,0.469,1.45,1.473
		c0.083,0.847-0.208,1.238-0.487,1.419l1.011,2.339l-1.044,0.103l-0.854-2.114c-0.109,0.021-0.247,0.04-0.364,0.052l0.211,2.161
		L51.427,87.261z M51.027,81.981l0.506,5.15l0.787-0.077l-0.212-2.16l0.059-0.006c0.176-0.018,0.356-0.043,0.457-0.066l0.05-0.011
		l0.857,2.124l0.795-0.077l-0.989-2.285l0.046-0.026c0.382-0.219,0.542-0.668,0.477-1.334c-0.103-1.047-0.588-1.451-1.62-1.35
		L51.027,81.981z M52.047,84.268l-0.17-1.736l0.38-0.037c0.531-0.052,0.751,0.151,0.814,0.797c0.063,0.642-0.105,0.888-0.645,0.939
		L52.047,84.268z M52.006,82.637l0.147,1.502l0.262-0.026c0.416-0.04,0.602-0.171,0.538-0.811c-0.057-0.586-0.236-0.697-0.545-0.697
		c-0.045,0-0.091,0.002-0.141,0.007L52.006,82.637z"/>
</g>
<path stroke="#000000" stroke-width="0.5" d="M59.04,85.702l-1.567-5.056l2.324-0.721l0.234,0.757l-1.456,0.452l0.404,1.301
	l1.119-0.347l0.234,0.757l-1.12,0.347l0.46,1.484l1.555-0.481l0.235,0.756L59.04,85.702z"/>
<path stroke="#000000" stroke-width="0.5" d="M65.823,82.988l-2.554-4.634l0.737-0.407l2.431,2.116l0.013-0.006l-1.461-2.651
	l0.719-0.396l2.555,4.634l-0.692,0.382l-2.61-2.335l-0.013,0.007l1.596,2.895L65.823,82.988z"/>
<g>
	<path d="M71.132,75.035l-0.267-0.311c-0.293-0.339-0.572-0.349-0.75-0.195c-0.277,0.239-0.241,0.461,0.017,0.76l1.753,2.03
		c0.258,0.299,0.472,0.367,0.749,0.128c0.249-0.217,0.207-0.433-0.018-0.692l-0.417-0.482l0.688-0.594l0.397,0.461
		c0.489,0.565,0.554,1.312-0.135,1.905c-0.721,0.623-1.45,0.45-1.939-0.115l-1.779-2.063c-0.489-0.566-0.554-1.313,0.168-1.936
		c0.688-0.594,1.451-0.382,1.967,0.218l0.254,0.293L71.132,75.035z"/>
	<path d="M72.214,78.498c-0.381,0-0.753-0.188-1.048-0.53l-1.781-2.063c-0.446-0.518-0.636-1.319,0.175-2.019
		c0.281-0.244,0.587-0.367,0.906-0.367c0.41,0,0.816,0.209,1.146,0.59l0.292,0.34l-0.777,0.67l-0.307-0.355
		c-0.233-0.27-0.49-0.341-0.666-0.188c-0.122,0.106-0.177,0.205-0.172,0.31c0.006,0.103,0.067,0.219,0.196,0.367l1.751,2.029
		c0.257,0.299,0.426,0.328,0.665,0.122c0.107-0.093,0.155-0.185,0.15-0.28c-0.006-0.094-0.063-0.202-0.173-0.329l-0.455-0.527
		l0.777-0.67L73.33,76.1c0.262,0.305,0.396,0.645,0.388,0.984c-0.01,0.367-0.193,0.716-0.529,1.006
		C72.875,78.36,72.546,78.498,72.214,78.498z M70.466,73.637c-0.291,0-0.569,0.114-0.829,0.339
		c-0.632,0.545-0.693,1.238-0.162,1.852l1.781,2.063c0.272,0.316,0.612,0.49,0.958,0.49c0.304,0,0.605-0.128,0.897-0.38
		c0.311-0.268,0.479-0.587,0.487-0.921c0.009-0.309-0.116-0.621-0.358-0.902l-0.359-0.416l-0.598,0.517l0.378,0.438
		c0.13,0.149,0.193,0.276,0.2,0.398c0.009,0.135-0.053,0.26-0.189,0.378c-0.125,0.106-0.24,0.158-0.354,0.158
		c-0.155,0-0.304-0.09-0.479-0.293l-1.751-2.03c-0.146-0.168-0.218-0.308-0.225-0.437c-0.007-0.144,0.063-0.275,0.214-0.406
		c0.083-0.071,0.182-0.109,0.288-0.109c0.126,0,0.322,0.055,0.543,0.312l0.229,0.265l0.599-0.516l-0.214-0.249
		C71.217,73.831,70.841,73.637,70.466,73.637z"/>
</g>
<g>
	<path d="M77.223,73.701l-4.186-3.234l1.487-1.925l0.626,0.484l-0.932,1.206l1.078,0.833l0.717-0.928l0.626,0.483l-0.716,0.928
		l1.229,0.95l0.993-1.287l0.627,0.483L77.223,73.701z"/>
	<path d="M77.233,73.783l-4.279-3.307l1.56-2.018l0.72,0.556l-0.932,1.207l0.984,0.761l0.716-0.928l0.721,0.557l-0.717,0.927
		l1.136,0.878l0.994-1.287l0.72,0.556L77.233,73.783z M73.12,70.456l4.092,3.161l1.479-1.911l-0.533-0.411l-0.994,1.287
		l-1.322-1.023l0.716-0.927l-0.532-0.411l-0.717,0.928l-1.172-0.906l0.933-1.205l-0.533-0.412L73.12,70.456z"/>
</g>
<path fill="#FFFFFF" d="M22.993,70.943l0.325-0.25c0.355-0.272,0.381-0.551,0.238-0.736c-0.222-0.291-0.445-0.269-0.758-0.028
	l-2.129,1.631c-0.314,0.24-0.394,0.45-0.171,0.74c0.2,0.262,0.418,0.232,0.691,0.024l0.507-0.388l0.552,0.721l-0.482,0.37
	c-0.593,0.454-1.343,0.475-1.896-0.246c-0.579-0.757-0.363-1.475,0.23-1.929l2.164-1.657c0.593-0.455,1.343-0.476,1.922,0.28
	c0.552,0.721,0.296,1.471-0.332,1.952l-0.308,0.235L22.993,70.943z"/>
<path fill="#FFFFFF" d="M26.687,74.29c0.488-0.567,1.218-0.741,1.94-0.12s0.66,1.369,0.172,1.937l-1.779,2.067
	c-0.487,0.566-1.218,0.741-1.94,0.12s-0.659-1.37-0.171-1.937L26.687,74.29z M25.612,76.934c-0.258,0.301-0.293,0.521-0.016,0.76
	c0.278,0.239,0.491,0.172,0.75-0.128l1.75-2.035c0.257-0.301,0.293-0.521,0.015-0.76s-0.491-0.172-0.75,0.129L25.612,76.934z"/>
<path fill="#FFFFFF" d="M30.334,81.676l2.546-4.638l0.739,0.405l-0.486,3.186l0.013,0.008l1.456-2.653l0.72,0.395l-2.546,4.639
	l-0.694-0.381l0.576-3.455l-0.013-0.007l-1.59,2.897L30.334,81.676z"/>
<path fill="#FFFFFF" d="M37.19,84.866l1.559-5.056l2.422,0.747l-0.233,0.756l-1.555-0.479l-0.401,1.302l1.162,0.358l-0.233,0.756
	l-1.162-0.358l-0.69,2.241L37.19,84.866z"/>
<path fill="#FFFFFF" d="M44.132,86.514l0.539-5.265l2.421,0.248l-0.081,0.787l-1.517-0.155l-0.139,1.356l1.167,0.12l-0.081,0.787
	l-1.167-0.12l-0.158,1.546l1.619,0.165l-0.081,0.787L44.132,86.514z"/>
<path fill="#FFFFFF" d="M52.179,86.696l-0.904,0.089l-0.517-5.269l1.27-0.124c1.014-0.1,1.574,0.28,1.685,1.404
	c0.083,0.847-0.212,1.221-0.506,1.39l1.001,2.312l-0.92,0.09l-0.855-2.119c-0.115,0.026-0.304,0.053-0.466,0.067L52.179,86.696z
	 M51.895,83.793l0.32-0.031c0.489-0.049,0.653-0.249,0.592-0.876c-0.061-0.628-0.262-0.793-0.751-0.744l-0.321,0.031L51.895,83.793z
	"/>
<path fill="#FFFFFF" d="M58.731,85.343l-1.566-5.056l2.322-0.72l0.236,0.755l-1.456,0.452l0.403,1.303l1.12-0.348l0.233,0.756
	l-1.12,0.348l0.461,1.483l1.555-0.48l0.233,0.755L58.731,85.343z"/>
<path fill="#FFFFFF" d="M65.413,82.782l-2.555-4.633l0.738-0.407l2.43,2.116l0.014-0.008l-1.462-2.65l0.72-0.396l2.554,4.635
	l-0.692,0.382l-2.61-2.335l-0.014,0.007l1.597,2.894L65.413,82.782z"/>
<path fill="#FFFFFF" d="M70.67,74.829l-0.268-0.31c-0.293-0.339-0.572-0.35-0.749-0.195c-0.278,0.238-0.242,0.459,0.017,0.76
	l1.752,2.029c0.258,0.299,0.472,0.367,0.749,0.128c0.249-0.216,0.207-0.432-0.018-0.692l-0.416-0.482l0.688-0.593l0.397,0.459
	c0.488,0.565,0.554,1.313-0.134,1.907c-0.722,0.622-1.452,0.449-1.94-0.116l-1.78-2.063c-0.489-0.565-0.554-1.313,0.168-1.936
	c0.688-0.594,1.451-0.381,1.967,0.217l0.255,0.295L70.67,74.829z"/>
<path fill="#FFFFFF" d="M76.76,73.598l-4.186-3.233l1.487-1.925l0.627,0.484l-0.933,1.205l1.078,0.834l0.718-0.928l0.625,0.483
	l-0.716,0.928l1.229,0.949l0.993-1.286l0.627,0.483L76.76,73.598z"/>
<g>
</g>
<g>
</g>
<g>
</g>
<g>
</g>
<g>
</g>
<g>
</g>
</svg>
