<?xml version="1.0" encoding="utf-8"?>
<!-- Generator: Adobe Illustrator 16.0.3, SVG Export Plug-In . SVG Version: 6.00 Build 0)  -->
<!DOCTYPE svg PUBLIC "-//W3C//DTD SVG 1.1//EN" "http://www.w3.org/Graphics/SVG/1.1/DTD/svg11.dtd">
<svg version="1.1" id="Layer_1" xmlns="http://www.w3.org/2000/svg" xmlns:xlink="http://www.w3.org/1999/xlink" x="0px" y="0px"
	 width="96px" height="96px" viewBox="0 0 96 96" enable-background="new 0 0 96 96" xml:space="preserve">
<g>
	<g>
		<ellipse fill="#BB9753" cx="48.369" cy="50.33" rx="38.741" ry="38.779"/>
		<path fill="#ED174C" d="M48.369,89.763c-21.723,0-39.397-17.689-39.397-39.433s17.674-39.433,39.397-39.433
			c21.723,0,39.396,17.689,39.396,39.433S70.092,89.763,48.369,89.763z M48.369,12.206c-21.001,0-38.088,17.103-38.088,38.125
			c0,21.022,17.086,38.125,38.088,38.125c21.002,0,38.089-17.103,38.089-38.125C86.458,29.308,69.371,12.206,48.369,12.206z"/>
	</g>
</g>
<g>
	<path d="M48.371,88.813c-21.226,0-38.494-17.283-38.494-38.53c0-21.244,17.268-38.529,38.494-38.529
		c21.225,0,38.493,17.285,38.493,38.529C86.864,71.53,69.596,88.813,48.371,88.813z M48.371,12.527
		c-20.799,0-37.721,16.938-37.721,37.756c0,20.82,16.921,37.759,37.721,37.759c20.8,0,37.72-16.938,37.72-37.759
		C86.091,29.464,69.171,12.527,48.371,12.527z"/>
</g>
<g>
	<path d="M48.371,88.754c-21.193,0-38.434-17.258-38.434-38.471c0-21.212,17.241-38.469,38.434-38.469
		c21.192,0,38.434,17.257,38.434,38.469C86.805,71.496,69.563,88.754,48.371,88.754z M48.371,12.467
		c-20.832,0-37.78,16.965-37.78,37.816c0,20.854,16.948,37.816,37.78,37.816S86.15,71.137,86.15,50.283
		C86.15,29.432,69.203,12.467,48.371,12.467z"/>
</g>
<g>
	<g>
		<path d="M64.177,16.103c-0.868-1.539-8.426-4.887-15.558-4.887c-7.133,0-14.689,3.349-15.559,4.887v9.21h31.127L64.177,16.103z"/>
		<path fill="#ED174C" d="M64.688,25.813h-32.13v-9.842l0.064-0.115c0.969-1.715,8.564-5.143,15.996-5.143
			s15.027,3.428,15.996,5.143l0.064,0.114L64.688,25.813z M33.562,24.811h30.123l-0.009-8.559
			c-1.029-1.366-8.265-4.535-15.057-4.535c-6.792,0-14.027,3.168-15.057,4.535V24.811z"/>
	</g>
</g>
<g>
	<path fill="#ED174C" d="M64.629,25.755H32.617v-9.769l0.058-0.102c0.976-1.727,8.799-5.112,15.944-5.112
		c7.145,0,14.968,3.385,15.944,5.112l0.057,0.102L64.629,25.755z M33.502,24.87h30.241l-0.008-8.638
		c-1.015-1.402-8.155-4.574-15.117-4.574s-14.101,3.171-15.117,4.574V24.87z"/>
</g>
<g>
	<g>
		<path d="M59.998,7.482C56.016,5.6,52.381,5.043,48.475,5.004c-4.858-0.05-9.382,1.081-11.524,2.317v16.945h23.054L59.998,7.482z"
			/>
		<path fill="#ED174C" d="M60.508,24.768h-24.06V7.031l0.251-0.145c2.058-1.188,6.4-2.387,11.464-2.387
			c0.105,0,0.211,0.001,0.316,0.002c4.578,0.046,8.087,0.803,11.733,2.527l0.288,0.136L60.508,24.768z M37.453,23.763h22.05
			l-0.007-15.96c-3.406-1.564-6.725-2.252-11.027-2.296c-4.764-0.049-8.986,1.045-11.017,2.111V23.763z"/>
	</g>
</g>
<g>
	<path fill="#ED174C" d="M60.449,24.708H36.507V7.065l0.222-0.127c2.05-1.185,6.381-2.378,11.434-2.378c0.105,0,0.211,0,0.316,0.001
		c4.568,0.047,8.07,0.801,11.709,2.521l0.253,0.12L60.449,24.708z M37.394,23.823h22.167L59.555,7.765
		c-3.426-1.578-6.76-2.273-11.084-2.317c-4.805-0.048-9.051,1.06-11.076,2.135V23.823z"/>
</g>
<g>
	<g>
		<path fill="#FFFFFF" d="M44.577,7.678v0.205c-0.193,0.085-0.217,0.212-0.217,0.366v7.962c0,0.154,0.023,0.268,0.217,0.251v0.205
			l-1.472,0.195v-0.206c0.139-0.037,0.178-0.115,0.178-0.236c0-0.222-0.193-0.393-2.239-4.9v5.261c0,0.154,0.023,0.268,0.217,0.25
			v0.206l-1.472,0.391v-0.205c0.194-0.086,0.217-0.212,0.217-0.366V9.145c0-0.154-0.023-0.267-0.217-0.25V8.689
			c0.196-0.074,1.69-0.46,1.867-0.497v0.206c-0.178,0.064-0.217,0.177-0.217,0.28c0,0.189,1.34,3.031,1.883,4.206v-4.49
			c0-0.205-0.062-0.274-0.163-0.264V7.924C43.306,7.879,44.393,7.689,44.577,7.678z"/>
		<path fill="#FFFFFF" d="M39.674,17.779v-0.431l0.068-0.031c0.134-0.059,0.148-0.128,0.148-0.26V9.145
			c0-0.137-0.015-0.137-0.065-0.137l-0.152,0.013V8.609l0.075-0.028c0.21-0.079,1.724-0.469,1.885-0.502l0.138-0.027v0.427
			l-0.076,0.027c-0.13,0.048-0.141,0.113-0.141,0.172c0.028,0.191,1.007,2.296,1.534,3.428l0.118,0.255V8.394
			c0-0.123-0.026-0.151-0.026-0.151l-0.126,0.012L43.044,8.13V7.838l0.082-0.024c0.161-0.049,1.254-0.239,1.445-0.252l0.122-0.007
			v0.404l-0.069,0.029c-0.133,0.06-0.148,0.129-0.148,0.261v7.962c0,0.137,0.015,0.137,0.064,0.137l0.152-0.013v0.434l-1.703,0.226
			v-0.426l0.086-0.023c0.076-0.02,0.093-0.042,0.093-0.124c0-0.082-0.056-0.198-0.321-0.752c-0.279-0.582-0.782-1.628-1.688-3.616
			v4.729c0,0.16,0.026,0.141,0.091,0.136l0.125-0.012v0.42L39.674,17.779z M39.904,8.785c0.217,0.045,0.217,0.278,0.217,0.36v7.913
			c0,0.149-0.024,0.3-0.178,0.411l1.203-0.327c-0.217-0.045-0.217-0.278-0.217-0.36v-5.261l0.221-0.047
			c1.045,2.303,1.605,3.469,1.906,4.096c0.305,0.636,0.344,0.717,0.344,0.852c0,0.146-0.053,0.248-0.162,0.308l1.21-0.16
			c-0.202-0.052-0.202-0.277-0.202-0.357V8.249c0-0.162,0.028-0.324,0.217-0.436V7.807c-0.292,0.041-0.941,0.154-1.188,0.208v0.018
			c0.082,0.035,0.163,0.128,0.163,0.361v4.49l-0.22,0.048l-0.338-0.728c-1.054-2.266-1.556-3.371-1.556-3.526
			c0-0.142,0.06-0.253,0.175-0.33c-0.404,0.1-1.303,0.335-1.594,0.424V8.785z"/>
	</g>
	<g>
		<path fill="#FFFFFF" d="M46.778,7.777c0-0.104-0.023-0.186-0.217-0.209V7.429h2.952c0.837,0,1.449,0.952,1.449,2.103
			c0,0.697-0.309,2.101-0.744,2.241v0.023c0.52,0.209,0.899,1.115,0.899,1.975c0,0.929-0.464,2.694-1.565,2.694h-2.991v-0.139
			c0.194-0.022,0.217-0.104,0.217-0.208V7.777z M47.94,11.191h1.053c0.667,0,0.837-1.045,0.837-1.509
			c0-0.465-0.171-1.022-0.837-1.022H47.94V11.191z M47.94,15.233h1.316c0.544,0,0.76-1.161,0.76-1.672
			c0-0.511-0.216-1.185-0.76-1.185H47.94V15.233z"/>
		<path fill="#FFFFFF" d="M49.552,16.581h-3.106v-0.358l0.102-0.012c0.115-0.014,0.115-0.031,0.115-0.094V7.777
			c0-0.063,0-0.08-0.115-0.095l-0.102-0.012V7.313h3.067c0.878,0,1.564,0.975,1.564,2.219c0,0.555-0.221,1.842-0.652,2.245
			c0.509,0.343,0.808,1.24,0.808,1.994C51.232,14.75,50.739,16.581,49.552,16.581z M46.807,16.35h2.745
			c1.012,0,1.45-1.708,1.45-2.579c0-0.846-0.371-1.684-0.826-1.868l-0.073-0.029v-0.162l0.081-0.049
			c0.342-0.11,0.663-1.41,0.663-2.131c0-1.114-0.586-1.987-1.334-1.987h-2.706c0.074,0.067,0.086,0.158,0.086,0.233v8.339
			C46.894,16.191,46.881,16.282,46.807,16.35z M49.257,15.349h-1.432v-3.087h1.432c0.575,0,0.875,0.653,0.875,1.299
			C50.132,14.039,49.925,15.349,49.257,15.349z M48.056,15.118h1.201c0.418,0,0.645-1.028,0.645-1.557
			c0-0.43-0.171-1.069-0.645-1.069h-1.201V15.118z M48.994,11.308h-1.169V8.545h1.169c0.596,0,0.953,0.425,0.953,1.138
			C49.946,10.134,49.775,11.308,48.994,11.308z M48.056,11.076h0.938c0.589,0,0.722-1.032,0.722-1.394
			c0-0.339-0.095-0.906-0.722-0.906h-0.938V11.076z"/>
	</g>
	<g>
		<path fill="#FFFFFF" d="M54.048,14.996c-0.202,1.251-0.248,1.405-0.248,1.513c0,0.107,0.031,0.187,0.139,0.214l-0.024,0.189
			l-1.379-0.229V16.47c0.108-0.025,0.155-0.084,0.201-0.358c0.069-0.393,1.412-7.682,1.412-7.789c0-0.125-0.086-0.183-0.155-0.219
			V7.89l2.022,0.518v0.214c-0.085-0.003-0.14,0.018-0.14,0.197c0,0.142,0.953,5.314,1.433,8.15c0.078,0.448,0.124,0.567,0.218,0.591
			v0.214L56,17.383v-0.214c0.109,0.01,0.147-0.07,0.147-0.177c0-0.071-0.232-1.352-0.264-1.591L54.048,14.996z M54.241,13.552
			l1.441,0.37l-0.751-4.114L54.241,13.552z"/>
		<path fill="#FFFFFF" d="M57.642,17.923l-1.757-0.45v-0.43l0.126,0.012c0.011,0.003,0.021-0.012,0.021-0.062
			c-0.004-0.044-0.071-0.439-0.126-0.757c-0.05-0.286-0.101-0.58-0.125-0.739l-1.64-0.361c-0.09,0.557-0.146,0.877-0.182,1.073
			c-0.032,0.188-0.045,0.259-0.045,0.302c0,0.088,0.023,0.095,0.053,0.102l0.099,0.026l-0.053,0.409l-1.594-0.264v-0.404
			l0.088-0.021c0.041-0.01,0.073-0.018,0.114-0.266c0.018-0.101,0.119-0.645,0.257-1.404c0.37-2.017,1.139-6.215,1.154-6.374
			c0-0.044-0.023-0.073-0.093-0.108l-0.063-0.032V7.741l2.253,0.576v0.425l-0.12-0.006l-0.017,0
			c0.002,0.008-0.003,0.033-0.003,0.081c0.007,0.095,0.243,1.416,0.518,2.944c0.298,1.666,0.669,3.74,0.914,5.188
			c0.054,0.308,0.099,0.475,0.132,0.498l0.087,0.022V17.923z M56.115,17.293l1.289,0.33c-0.103-0.088-0.147-0.285-0.209-0.635
			c-0.244-1.447-0.615-3.52-0.914-5.185c-0.378-2.108-0.521-2.913-0.521-2.985c0-0.064,0-0.24,0.14-0.295V8.498l-1.789-0.458
			c0.066,0.046,0.152,0.132,0.152,0.283c0,0.067-0.293,1.684-1.158,6.408c-0.138,0.758-0.238,1.302-0.255,1.402
			c-0.038,0.221-0.082,0.354-0.2,0.417v0.038l1.139,0.188c-0.06-0.049-0.104-0.13-0.104-0.266c0-0.063,0.012-0.128,0.049-0.342
			c0.036-0.208,0.099-0.56,0.2-1.19l0.02-0.121l2.035,0.449l0.01,0.08c0.014,0.113,0.075,0.468,0.136,0.811
			c0.1,0.58,0.128,0.755,0.128,0.796c0,0.078-0.015,0.141-0.046,0.19c-0.025,0.039-0.06,0.067-0.101,0.084V17.293z M55.829,14.078
			l-1.721-0.441l0.709-3.85h0.228L55.829,14.078z M54.374,13.466l1.162,0.298l-0.605-3.317L54.374,13.466z"/>
	</g>
</g>
<g>
	<g>
		<g>
			<g>
				<path fill="#CC6D19" d="M29.25,71.908c12.383,10.911,30.95,9.343,41.467-3.504c10.519-12.844,9.008-32.105-3.376-43.017
					c-12.383-10.911-30.949-9.344-41.467,3.502C15.355,41.736,16.867,60.997,29.25,71.908z"/>
				<path d="M48.281,79.815C48.281,79.815,48.281,79.815,48.281,79.815c-7.119,0-14.03-2.635-19.461-7.42
					c-12.622-11.124-14.169-30.824-3.449-43.917c5.723-6.991,14.084-11,22.938-11c7.118,0,14.029,2.636,19.46,7.421
					c12.622,11.123,14.169,30.823,3.449,43.916C65.495,75.807,57.135,79.815,48.281,79.815z M48.31,18.777
					c-8.463,0-16.458,3.836-21.934,10.523c-10.283,12.559-8.801,31.453,3.303,42.12c5.193,4.576,11.8,7.097,18.602,7.097
					c8.463,0.001,16.458-3.835,21.934-10.523c10.283-12.558,8.801-31.453-3.304-42.119C61.719,21.298,55.111,18.777,48.31,18.777z"
					/>
			</g>
		</g>
	</g>
</g>
<g>
	<g>
		<g>
			<path d="M48.281,79.756C48.281,79.756,48.281,79.756,48.281,79.756c-7.104,0-14.002-2.629-19.422-7.405
				c-12.598-11.102-14.143-30.766-3.442-43.834c5.712-6.977,14.056-10.979,22.893-10.979c7.104,0,14.001,2.631,19.421,7.407
				c12.599,11.102,14.144,30.766,3.442,43.833C65.461,75.755,57.116,79.756,48.281,79.756z M48.31,18.718
				c-8.481,0-16.492,3.844-21.979,10.546c-10.303,12.583-8.819,31.513,3.31,42.202c5.204,4.586,11.825,7.11,18.641,7.11
				c8.481,0.002,16.492-3.843,21.98-10.544c10.302-12.584,8.818-31.515-3.311-42.203C61.745,21.244,55.126,18.718,48.31,18.718z"/>
		</g>
	</g>
</g>
<path d="M51.455,79.17c-5.461-7.05-9.398-17.805-10.8-29.503c-1.406-11.736-0.117-23.281,3.537-31.676l1.19,0.519
	c-7.395,16.989-4.012,45.522,7.099,59.865L51.455,79.17z"/>
<path d="M45.466,75.586c-6.889,0-12.979-1.547-16.478-3.085l0.522-1.187c4.067,1.786,11.776,3.584,20.12,2.775
	c7.025-0.684,17.032-3.521,24.811-13.163l1.011,0.814c-6.381,7.909-15.267,12.625-25.695,13.64
	C48.303,75.522,46.868,75.586,45.466,75.586z"/>
<path d="M42.025,79.033l-0.63-1.135c0.464-0.259,1.506-1.047,1.166-2.797c-0.201-1.035-1.591-2.278-3.062-3.593
	c-0.985-0.882-2.103-1.881-3.05-2.98c-7.792-9.044-10.995-19.139-9.518-30.002c1.042-7.66,4.156-13.54,5.92-16.362l1.101,0.688
	c-3.466,5.546-13.459,25.17,3.48,44.83c0.893,1.036,1.929,1.962,2.933,2.859c1.709,1.528,3.186,2.849,3.47,4.313
	C44.352,77.512,42.58,78.724,42.025,79.033z"/>
<path d="M59.355,76.298c-3.071,0-4.27-1.241-4.709-2.447c-0.386-1.063,0.108-2.295,1.191-4.998c0.369-0.919,0.787-1.962,1.268-3.233
	c7.421-19.654,0.056-43.527-2.146-46.129l0.991-0.838c2.367,2.797,10.107,26.927,2.368,47.425c-0.483,1.284-0.923,2.38-1.276,3.259
	c-0.869,2.167-1.394,3.475-1.177,4.07c0.763,2.097,4.491,1.669,6.646,1.227l0.261,1.271C61.433,76.179,60.305,76.298,59.355,76.298z
	"/>
<path d="M51.502,79.134c-5.456-7.041-9.387-17.784-10.788-29.475c-1.405-11.725-0.118-23.259,3.532-31.644l1.082,0.47
	c-7.402,17.006-4.016,45.568,7.106,59.925L51.502,79.134z"/>
<path d="M45.465,75.526c-6.879,0-12.96-1.543-16.453-3.079l0.475-1.079c4.073,1.79,11.794,3.592,20.148,2.778
	c7.037-0.683,17.061-3.524,24.852-13.182l0.918,0.74c-6.37,7.896-15.241,12.605-25.654,13.616
	C48.299,75.464,46.865,75.526,45.465,75.526z"/>
<path d="M41.997,78.981l-0.573-1.031c0.475-0.264,1.542-1.071,1.194-2.861c-0.205-1.054-1.601-2.302-3.08-3.625
	c-0.984-0.88-2.1-1.878-3.045-2.975c-7.781-9.03-10.979-19.108-9.504-29.956c1.04-7.649,4.151-13.519,5.912-16.338l1,0.625
	c-3.472,5.555-13.48,25.21,3.486,44.899c0.894,1.037,1.933,1.967,2.937,2.864c1.702,1.523,3.172,2.836,3.452,4.28
	C44.286,77.483,42.543,78.677,41.997,78.981z"/>
<path d="M59.355,76.238c-3.037,0-4.221-1.221-4.653-2.408c-0.379-1.041,0.113-2.268,1.191-4.956
	c0.368-0.919,0.788-1.962,1.268-3.233c7.428-19.676,0.049-43.582-2.156-46.188l0.901-0.763c1.289,1.524,3.728,8.332,4.954,17.149
	c1.083,7.78,1.511,19.338-2.597,30.217c-0.483,1.284-0.923,2.378-1.275,3.259c-0.904,2.254-1.402,3.494-1.178,4.111
	c0.739,2.032,4.059,1.811,6.713,1.266l0.237,1.155C61.424,76.122,60.3,76.238,59.355,76.238z"/>
<g>
	<g>
		<polygon points="48.356,25.356 89.413,39.784 89.413,57.76 48.492,74.199 7.364,57.76 7.364,39.699 		"/>
		<path d="M48.492,74.264l-0.022-0.009L7.305,57.801V39.657l41.052-14.364l0.02,0.006l41.096,14.442v18.059L48.492,74.264z
			 M7.423,57.72l41.069,16.416L89.354,57.72V39.825L48.356,25.418L7.423,39.742V57.72z"/>
	</g>
</g>
<g>
	<g>
		<polygon fill="#ED174C" points="48.276,20.895 87.65,35.605 87.65,56.963 48.406,72.532 9.163,56.963 9.163,35.605 		"/>
		<path d="M48.406,73.229L8.513,57.403V35.156l39.763-14.955L88.3,35.156v22.248L48.406,73.229z M9.812,56.522l38.595,15.31
			l38.595-15.31V36.056L48.277,21.588L9.812,36.055V56.522z"/>
	</g>
</g>
<g>
	<path d="M48.406,73.167L8.572,57.364V35.197l39.704-14.931L88.24,35.196v22.168L48.406,73.167z M9.752,56.562l38.654,15.336
		l38.654-15.336V36.015l-38.783-14.49L9.752,36.014V56.562z"/>
</g>
<g>
	<g>
		<g>
			<g>
				<g>
					<path fill="#FFFFFF" d="M15.303,54.95l-1.409-15.022l-0.935,0.346l-0.203-1.966l3.51-1.211l0.512,14.562l0.716-14.936
						l1.885-0.755L20.4,51.83l0.74-16.431l3.333-1.088l0,2.067l-0.53,0.17l-2.19,20.956l-2.628-1.109l-0.607-8.931l-0.629,8.5
						L15.303,54.95z"/>
					<g>
						<g>
							<g>
								<path fill="#FFFFFF" d="M41.829,65.592c0.875,0.363,1.488,0,1.488-1.133V51.266c0-1.268-0.392-2.051-0.682-2.549
									l-4.088-7.337c-0.287-0.22-0.242-3.107-0.242-3.215v-5.294c0-0.297-0.141-0.871,0.408-1.085l1.052-0.344
									c0.665-0.215,0.679,0.32,0.675,0.844v7.191l2.416,1.09v-9.913c0-2.577-0.421-2.675-1.786-2.256
									c-0.405,0.125-4.088,1.389-4.088,1.389c-1.309,0.401-1.092,1.091-1.092,2.996v6.714c0,2.387,0.558,2.917,0.977,3.639
									l3.809,7c0.067,0.111,0.226,0.383,0.226,1.505v9.895c0,1.271,0.1,1.547-0.477,1.305l-1.444-0.615
									c-0.374-0.145-0.33-0.288-0.33-1.098v-7.315l-2.415-1.827v9.972c0,0.324-0.217,1.214,0.941,1.79L41.829,65.592z"/>
							</g>
						</g>
					</g>
				</g>
				<g>
					<path fill="#FFFFFF" d="M63.549,61.765v-1.926l0.98-0.423V33.961l-1.165-0.417v-2.162l4.377,1.555
						c2.849,1.048,3.764,1.46,3.761,4.124l-0.001,7.348c-0.001,1.295-0.731,2.004-2.484,1.94v0.047
						c2.336,0.068,2.204,1.241,2.204,3.602l-0.004,5.974c-0.001,1.688,0.276,1.936,0.447,2.554L69,59.58
						c-0.213-0.407-0.405-0.624-0.404-1.822l0.004-8.229c0.002-1.075-0.166-1.791-1.34-1.791l-0.006,10.641l0.579-0.242v1.904
						L63.549,61.765z M67.512,45.223l0.364,0.102c0.491,0.138,1.002-0.161,1.002-0.991l0.003-8.27
						c0.001-0.831-0.508-0.966-1.001-1.13l-0.364-0.132L67.512,45.223z"/>
				</g>
				<g>
					<path fill="#FFFFFF" d="M78.453,36.45l2.838,13.458l-0.75-10.594l-0.946-0.289v-2.13l3.983,1.349v2.139l-0.654-0.21v14.044
						l-2.479,1.066l-3.045-11.515v12.63l-3.647,1.539v-1.942l1.028-0.435V37.31l-1.028-0.359v-2.103L78.453,36.45z"/>
				</g>
				<g>
					<path fill="#FFFFFF" d="M24.701,58.651v-1.94l0.876,0.408l0.02-23.186l8.095-2.864v9.787l-2.374-1.028v-5.836l-2.943,1.039
						v10.646h2.091v-1.753h1.74v5.776h-1.74v-1.756h-2.091v10.225l2.943,1.174v-6.375l2.374-0.991v10.25L24.701,58.651z"/>
				</g>
				<polygon fill="#FFFFFF" points="56.872,47.945 58.8,47.945 58.8,49.699 60.405,49.699 60.405,43.924 58.8,43.924 58.8,45.677 
					56.872,45.676 56.872,31.063 59.586,31.967 59.586,40.814 61.774,39.76 61.774,30.624 54.309,28.009 54.29,63.439 53.481,63.85 
					53.481,65.725 61.774,62.461 61.774,53.699 59.586,52.6 59.586,61.367 56.872,62.51 56.872,47.943 				"/>
			</g>
		</g>
	</g>
	<g>
		<polygon fill="#FFFFFF" points="48.454,67.538 46.382,66.741 46.382,64.588 47.001,64.871 47.001,28.583 43.427,29.761 
			43.409,27.669 48.277,25.917 53.559,27.697 53.559,29.789 49.773,28.583 49.773,64.871 50.383,64.601 50.383,66.754 		"/>
	</g>
</g>
<polygon fill="#ED174C" points="52.729,30.055 50.342,29.288 50.342,29.796 52.729,30.55 "/>
<g>
	<g>
		<polygon points="46.429,29.33 46.429,64.058 45.864,63.804 45.864,29.49 		"/>
		<path fill="#ED174C" d="M46.489,64.149l-0.684-0.308V29.445l0.684-0.193V64.149z M45.923,63.767l0.447,0.201v-34.56l-0.447,0.127
			V63.767z"/>
	</g>
	<g>
		<polygon points="45.688,64.318 45.688,66.545 45.076,66.308 45.076,64.042 		"/>
		<path fill="#ED174C" d="M45.747,66.633l-0.729-0.284V63.95l0.729,0.329V66.633z M45.135,66.268l0.493,0.191v-2.103l-0.493-0.224
			V66.268z"/>
	</g>
	<g>
		<g>
			<g>
				<polygon points="12.194,38.444 12.388,40.295 11.835,40.489 11.631,38.608 				"/>
				<path fill="#ED174C" d="M11.784,40.57l-0.217-2.005l0.678-0.197l0.206,1.967L11.784,40.57z M11.696,38.651l0.19,1.758
					l0.438-0.154l-0.181-1.734L11.696,38.651z"/>
			</g>
			<g>
				<polygon points="12.866,40.921 13.403,40.719 14.741,54.728 14.178,54.54 				"/>
				<path fill="#ED174C" d="M14.808,54.812l-0.685-0.228l-1.321-13.702l0.652-0.246L14.808,54.812z M14.234,54.495l0.439,0.147
					l-1.322-13.841l-0.423,0.159L14.234,54.495z"/>
			</g>
			<g>
				<polygon points="20.577,35.598 20.015,35.823 19.974,36.79 20.333,40.961 				"/>
				<path fill="#ED174C" d="M20.274,40.966l-0.359-4.172l0.042-1.013l0.683-0.273l-0.248,5.456L20.274,40.966z M20.073,35.863
					l-0.039,0.928l0.282,3.269l0.199-4.373L20.073,35.863z"/>
			</g>
			<g>
				<polygon points="24.456,36.945 25.015,36.754 25.015,56.294 24.452,56.063 				"/>
				<path fill="#ED174C" d="M25.074,56.382l-0.681-0.28l0.003-19.199l0.677-0.231V56.382z M24.511,56.022l0.444,0.184V36.837
					l-0.44,0.15L24.511,56.022z"/>
			</g>
			<g>
				<polygon points="24.146,56.535 23.576,56.281 23.576,58.149 24.138,58.411 				"/>
				<path fill="#ED174C" d="M24.197,58.502l-0.681-0.314v-1.998l0.689,0.308L24.197,58.502z M23.635,58.112l0.444,0.205l0.007-1.745
					l-0.452-0.201V58.112z"/>
			</g>
			<g>
				<polygon points="30.192,39.313 30.192,35.035 30.756,34.832 30.756,40.164 32.559,40.954 32.559,41.453 30.192,40.51 				"/>
				<path fill="#ED174C" d="M32.619,41.54l-2.486-0.991v-5.556l0.683-0.246v5.378l1.803,0.79V41.54z M30.251,40.469l2.25,0.896
					v-0.373l-1.804-0.79v-5.288l-0.446,0.161V40.469z"/>
			</g>
			<g>
				<polygon points="29.911,43.924 29.911,45.164 29.342,45.164 29.342,43.93 				"/>
				<path fill="#ED174C" d="M29.97,45.222h-0.688v-1.351l0.688-0.008V45.222z M29.401,45.104h0.45v-1.121l-0.45,0.005V45.104z"/>
			</g>
			<g>
				<rect x="29.364" y="48.454" width="0.547" height="1.249"/>
				<path fill="#ED174C" d="M29.97,49.762h-0.666v-1.366h0.666V49.762z M29.423,49.646h0.428v-1.132h-0.428V49.646z"/>
			</g>
			<g>
				<polygon points="30.208,52.334 30.208,58.354 30.756,58.531 30.756,52.668 32.567,51.883 32.567,51.392 				"/>
				<path fill="#ED174C" d="M30.815,58.612l-0.667-0.216v-6.103l2.478-0.99v0.618l-1.811,0.786V58.612z M30.267,58.31l0.43,0.141
					v-5.821l1.811-0.784v-0.365l-2.241,0.896V58.31z"/>
			</g>
			<g>
				<path d="M39.201,32.567v7.581l2.672,1.111v-0.565l-2.054-0.921v-7.505c0-0.108,0.042-0.399-0.337-0.318
					c-0.39,0.083-0.484,0.122-0.484,0.122C39.061,32.071,39.201,32.195,39.201,32.567z"/>
				<path fill="#ED174C" d="M41.932,41.349l-2.79-1.161v-7.621c0-0.34-0.122-0.434-0.145-0.436l-0.021-0.114
					c0.004-0.001,0.103-0.042,0.495-0.125c0.153-0.033,0.264-0.013,0.333,0.058c0.082,0.083,0.078,0.212,0.076,0.29l0,0.028v7.466
					l2.053,0.921V41.349z M39.261,40.108l2.553,1.063v-0.439l-2.053-0.921l0-7.575c0.001-0.061,0.004-0.155-0.042-0.202
					c-0.039-0.041-0.115-0.05-0.224-0.026c-0.173,0.037-0.288,0.066-0.36,0.084c0.068,0.083,0.126,0.233,0.126,0.475V40.108z"/>
			</g>
			<g>
				<path d="M35.092,51.305l-0.035,10.381c-0.028,0.854,0.082,1.329,1.16,1.804c-0.156-0.137-0.781-0.731-0.593-1.763l0.031-9.988
					L35.092,51.305z"/>
				<path fill="#ED174C" d="M36.193,63.543c-1.065-0.469-1.225-0.932-1.194-1.859l0.035-10.499l0.68,0.525v0.028l-0.031,9.988
					c-0.178,0.979,0.394,1.563,0.573,1.718L36.193,63.543z M35.151,51.424l-0.034,10.262c-0.025,0.757,0.055,1.194,0.835,1.609
					c-0.239-0.298-0.522-0.831-0.387-1.579l0.03-9.948L35.151,51.424z"/>
			</g>
			<g>
				<path d="M39.764,61.741c0.032-0.135-0.016-9.963-0.016-10.422c0-0.923-0.25-1.084-0.422-1.41
					c-0.171-0.353-3.063-5.75-3.626-6.646c-0.618-0.983-0.993-1.715-0.993-2.921v-8.607c-0.031-1.355,1.156-1.504,1.244-1.526
					c-0.734,0.365-0.634,1.418-0.666,1.541v8.606c0.016,1.165,0.532,2.073,0.969,2.697l3.642,6.708
					c0.185,0.315,0.43,0.75,0.43,1.275c0,0.53,0,10.668,0,10.951c0,0.122,0.109,0.421-0.313,0.3
					c-0.495-0.139-0.328-0.137-0.328-0.137S39.771,62.213,39.764,61.741z"/>
				<path fill="#ED174C" d="M40.179,62.374c-0.051,0-0.11-0.011-0.182-0.03c-0.377-0.106-0.405-0.135-0.397-0.194
					c0.002-0.015,0.013-0.056,0.077-0.06c0.011-0.028,0.031-0.111,0.027-0.347c0.025-0.19-0.001-6.768-0.011-9.244
					c-0.002-0.65-0.004-1.092-0.004-1.18c0-0.721-0.154-0.962-0.303-1.196c-0.039-0.059-0.077-0.12-0.111-0.185
					c-0.197-0.403-3.073-5.767-3.625-6.644c-0.587-0.934-1.002-1.692-1.002-2.953v-8.607c-0.019-0.841,0.442-1.417,1.265-1.579
					l0.023-0.005l0.041,0.11c-0.584,0.292-0.612,1.044-0.624,1.365c-0.003,0.075-0.004,0.112-0.011,0.137l0.002,8.592
					c0.016,1.186,0.554,2.088,0.958,2.663l3.646,6.716c0.163,0.276,0.438,0.744,0.438,1.302v10.951c0,0.018,0.002,0.037,0.005,0.061
					c0.009,0.081,0.021,0.19-0.043,0.263C40.31,62.353,40.253,62.374,40.179,62.374z M39.778,62.153
					c0.048,0.016,0.126,0.041,0.251,0.077c0.119,0.034,0.201,0.034,0.229,0.002c0.029-0.034,0.02-0.113,0.014-0.173
					c-0.003-0.027-0.006-0.052-0.006-0.073V51.035c0-0.483-0.208-0.881-0.422-1.244l-3.643-6.71
					c-0.409-0.583-0.959-1.505-0.976-2.725v-8.607c0.005-0.029,0.007-0.079,0.008-0.128c0.01-0.262,0.033-0.885,0.418-1.271
					c-0.422,0.156-0.906,0.521-0.886,1.384v8.608c0,1.229,0.408,1.973,0.983,2.89c0.552,0.878,3.434,6.252,3.629,6.653
					c0.032,0.061,0.069,0.116,0.105,0.176c0.159,0.246,0.323,0.504,0.323,1.259c0,0.088,0.001,0.529,0.004,1.18
					c0.025,6.492,0.029,9.174,0.009,9.257C39.826,61.998,39.804,62.103,39.778,62.153z"/>
			</g>
			<g>
				<polygon points="52.91,65.942 52.347,66.137 52.347,64.301 52.91,64.047 				"/>
				<path fill="#ED174C" d="M52.288,66.22v-1.957l0.681-0.306v2.026L52.288,66.22z M52.406,64.338v1.716l0.444-0.154v-1.761
					L52.406,64.338z"/>
			</g>
			<g>
				<polygon points="58.982,52.602 58.978,61.13 58.415,61.356 58.415,52.602 				"/>
				<path fill="#ED174C" d="M58.355,61.442v-8.9h0.687l-0.005,8.628L58.355,61.442z M58.475,52.661v8.607l0.443-0.179l0.006-8.429
					H58.475z"/>
			</g>
			<g>
				<polygon points="58.42,40.884 58.431,32.099 58.993,32.284 58.993,40.884 				"/>
				<path fill="#ED174C" d="M59.053,40.944h-0.691l0.011-8.927l0.681,0.226V40.944z M58.479,40.825h0.455v-8.498l-0.445-0.146
					L58.479,40.825z"/>
			</g>
			<g>
				<rect x="57.567" y="43.868" width="0.563" height="1.318"/>
				<path fill="#ED174C" d="M58.19,45.246h-0.679l-0.003-1.437h0.682V45.246z M57.631,45.127h0.44v-1.2h-0.444L57.631,45.127z"/>
			</g>
			<g>
				<rect x="57.567" y="48.438" width="0.563" height="1.265"/>
				<path fill="#ED174C" d="M58.19,49.762h-0.679l-0.003-1.383h0.682V49.762z M57.631,49.646h0.44v-1.147h-0.444L57.631,49.646z"/>
			</g>
			<g>
				<polygon points="63.42,34.17 63.967,34.365 63.967,59.149 63.407,59.35 				"/>
				<path fill="#ED174C" d="M63.348,59.434V59.35l0.013-25.263l0.666,0.237v24.87L63.348,59.434z M63.479,34.254l-0.013,25.01
					l0.44-0.156V34.407L63.479,34.254z"/>
			</g>
			<g>
				<polygon points="73.189,34.593 73.189,36.74 72.627,36.584 72.627,34.398 				"/>
				<path fill="#ED174C" d="M73.248,36.817l-0.681-0.187v-2.314l0.681,0.233V36.817z M72.686,36.541l0.444,0.122v-2.028
					l-0.444-0.153V36.541z"/>
			</g>
			<g>
				<polygon points="74.219,55.269 73.688,55.506 73.656,37.48 74.22,37.639 				"/>
				<path fill="#ED174C" d="M73.628,55.598v-0.092l-0.03-18.104l0.682,0.192l-0.002,17.712L73.628,55.598z M73.716,37.558
					l0.03,17.858l0.413-0.187l0.001-17.545L73.716,37.558z"/>
			</g>
			<g>
				<polygon points="73.189,56.191 73.189,58.175 72.627,58.403 72.627,56.386 				"/>
				<path fill="#ED174C" d="M72.567,58.491v-2.148l0.681-0.234v2.106L72.567,58.491z M72.686,56.427v1.889l0.444-0.18v-1.861
					L72.686,56.427z"/>
			</g>
			<g>
				<polygon points="78.047,48.349 78.047,50.475 79.349,55.736 79.892,55.493 				"/>
				<path fill="#ED174C" d="M79.309,55.819l-1.319-5.331l-0.002-2.14l0.117-0.015l1.855,7.193L79.309,55.819z M78.105,48.814v1.66
					l1.284,5.179l0.432-0.194L78.105,48.814z"/>
			</g>
			<g>
				<polygon points="62.982,59.988 62.982,61.97 62.42,62.2 62.42,60.181 				"/>
				<path fill="#ED174C" d="M62.36,62.286v-2.147l0.682-0.233v2.104L62.36,62.286z M62.479,60.224v1.889l0.444-0.182v-1.86
					L62.479,60.224z"/>
			</g>
		</g>
	</g>
	<g>
		<polygon points="53.21,30.229 53.758,30.424 53.758,63.158 53.199,63.358 		"/>
		<path fill="#ED174C" d="M53.14,63.442v-0.084l0.012-33.213l0.665,0.237V63.2L53.14,63.442z M53.27,30.313l-0.011,32.961
			l0.439-0.156V30.465L53.27,30.313z"/>
	</g>
</g>
<g>
	<g>
		<path d="M20.371,67.453l0.356-0.199c0.388-0.22,0.453-0.489,0.338-0.694c-0.179-0.316-0.402-0.326-0.746-0.134l-2.328,1.312
			c-0.343,0.194-0.451,0.389-0.272,0.707c0.161,0.286,0.38,0.287,0.68,0.12l0.553-0.311l0.444,0.787l-0.528,0.297
			c-0.649,0.365-1.392,0.282-1.835-0.507c-0.466-0.827-0.153-1.506,0.496-1.872l2.366-1.331c0.649-0.365,1.392-0.28,1.857,0.545
			c0.444,0.789,0.086,1.492-0.601,1.881l-0.337,0.189L20.371,67.453z"/>
		<path fill="#BB9753" d="M18.134,69.605c-0.473,0-0.882-0.264-1.153-0.746c-0.523-0.928-0.075-1.616,0.519-1.951l2.366-1.333
			c0.249-0.14,0.51-0.214,0.756-0.214c0.339,0,0.818,0.137,1.182,0.782c0.217,0.387,0.262,0.781,0.128,1.141
			c-0.122,0.329-0.381,0.611-0.75,0.82l-0.389,0.219l-0.502-0.892l0.408-0.23c0.314-0.176,0.433-0.404,0.316-0.611
			c-0.157-0.28-0.324-0.304-0.665-0.111l-2.328,1.311c-0.17,0.096-0.267,0.184-0.307,0.277c-0.04,0.097-0.022,0.207,0.057,0.349
			c0.136,0.241,0.301,0.265,0.599,0.098l0.605-0.34l0.502,0.892l-0.58,0.325C18.647,69.53,18.383,69.605,18.134,69.605z
			 M20.622,65.48c-0.226,0-0.467,0.068-0.698,0.197l-2.366,1.333c-0.705,0.397-0.882,1.066-0.474,1.791
			c0.252,0.448,0.615,0.686,1.05,0.686c0.229,0,0.473-0.068,0.705-0.2l0.477-0.268l-0.386-0.687l-0.501,0.284
			c-0.363,0.203-0.594,0.15-0.76-0.145c-0.098-0.173-0.118-0.32-0.063-0.451c0.05-0.12,0.164-0.227,0.358-0.336l2.328-1.31
			c0.165-0.094,0.296-0.137,0.411-0.137c0.168,0,0.304,0.096,0.415,0.291c0.118,0.211,0.085,0.523-0.361,0.775l-0.305,0.171
			l0.386,0.686l0.286-0.16c0.344-0.194,0.586-0.457,0.698-0.759c0.121-0.326,0.08-0.686-0.12-1.04
			C21.436,65.73,21.063,65.48,20.622,65.48z"/>
	</g>
	<g>
		<path d="M24.167,72.023c0.545-0.51,1.287-0.602,1.934,0.093s0.503,1.429-0.042,1.936l-1.986,1.853
			c-0.545,0.507-1.287,0.599-1.935-0.096c-0.647-0.694-0.502-1.426,0.043-1.935L24.167,72.023z M22.813,74.521
			c-0.288,0.27-0.347,0.483-0.099,0.751c0.249,0.267,0.467,0.224,0.756-0.047l1.955-1.821c0.288-0.268,0.348-0.484,0.099-0.75
			c-0.249-0.268-0.467-0.223-0.756,0.045L22.813,74.521z"/>
		<path fill="#BB9753" d="M23.144,76.366c-0.372,0-0.734-0.178-1.049-0.517c-0.727-0.78-0.453-1.554,0.045-2.02l1.987-1.851
			c0.294-0.274,0.629-0.421,0.968-0.421c0.372,0,0.734,0.179,1.05,0.517c0.314,0.338,0.467,0.712,0.441,1.083
			c-0.024,0.338-0.192,0.661-0.487,0.937l-1.987,1.853C23.817,76.221,23.482,76.366,23.144,76.366z M25.094,71.678
			c-0.308,0-0.615,0.135-0.887,0.389l-1.987,1.851c-0.591,0.552-0.606,1.244-0.039,1.853c0.292,0.313,0.625,0.478,0.962,0.478
			c0.309,0,0.615-0.133,0.888-0.388l1.987-1.851c0.272-0.254,0.427-0.551,0.449-0.858c0.023-0.338-0.119-0.682-0.41-0.994
			C25.765,71.843,25.432,71.678,25.094,71.678z M23.047,75.51L23.047,75.51c-0.129,0-0.252-0.064-0.376-0.197
			c-0.135-0.146-0.19-0.284-0.167-0.425c0.021-0.128,0.106-0.259,0.269-0.41l1.955-1.821c0.339-0.314,0.58-0.322,0.839-0.043
			c0.135,0.146,0.19,0.284,0.167,0.424c-0.021,0.13-0.107,0.259-0.269,0.41L23.51,75.27C23.334,75.435,23.187,75.51,23.047,75.51z
			 M25.19,72.534c-0.108,0-0.229,0.066-0.382,0.208l-1.955,1.822c-0.143,0.133-0.216,0.242-0.233,0.343
			c-0.017,0.103,0.027,0.205,0.137,0.324c0.216,0.232,0.385,0.22,0.672-0.049l1.954-1.821c0.143-0.134,0.216-0.241,0.233-0.342
			c0.017-0.104-0.026-0.207-0.137-0.326C25.379,72.586,25.285,72.534,25.19,72.534z"/>
	</g>
	<g>
		<path d="M27.621,80.567l2.902-4.397l0.701,0.463l-0.74,3.122l0.012,0.009l1.66-2.517l0.683,0.45l-2.902,4.398l-0.658-0.435
			l0.851-3.382l-0.012-0.009l-1.813,2.748L27.621,80.567z"/>
		<path fill="#BB9753" d="M29.953,82.177l-0.743-0.489l0.787-3.127L28.32,81.1l-0.781-0.515l2.967-4.497l0.785,0.518l-0.683,2.879
			l1.53-2.319l0.781,0.516L29.953,82.177z M29.346,81.636l0.574,0.378l2.837-4.299l-0.584-0.387l-1.66,2.517l-0.083-0.056
			l-0.003-0.047l0.73-3.083l-0.617-0.408l-2.837,4.3l0.583,0.385l1.813-2.746l0.084,0.056l0.002,0.049L29.346,81.636z"/>
	</g>
	<g>
		<path d="M35.179,84.715l1.808-4.951l2.372,0.866l-0.271,0.741l-1.522-0.556l-0.466,1.275l1.138,0.415l-0.271,0.741l-1.138-0.415
			l-0.801,2.191L35.179,84.715z"/>
		<path fill="#BB9753" d="M36.064,85.102l-0.961-0.353l1.849-5.062l2.483,0.908l-0.311,0.852l-1.522-0.557l-0.425,1.164l1.138,0.415
			l-0.311,0.853l-1.138-0.415L36.064,85.102z M35.255,84.679l0.739,0.27l0.801-2.194l1.138,0.416l0.229-0.628l-1.138-0.417
			l0.506-1.385l1.522,0.556l0.23-0.63l-2.261-0.825L35.255,84.679z"/>
	</g>
	<g>
		<path d="M43.084,86.689l0.646-5.23l2.405,0.297l-0.097,0.782l-1.507-0.185L44.366,83.7l1.159,0.144l-0.097,0.782l-1.159-0.144
			l-0.19,1.536l1.608,0.199L45.591,87L43.084,86.689z"/>
		<path fill="#BB9753" d="M45.643,87.065l-2.624-0.324l0.661-5.349l2.522,0.313l-0.111,0.898l-1.507-0.185l-0.152,1.229l1.159,0.144
			l-0.111,0.899l-1.159-0.143l-0.176,1.417l1.608,0.2L45.643,87.065z M43.15,86.639l2.389,0.295l0.082-0.665l-1.608-0.198
			l0.204-1.654l1.159,0.144l0.082-0.665L44.3,83.752l0.181-1.465l1.507,0.187l0.082-0.665l-2.288-0.282L43.15,86.639z"/>
	</g>
	<g>
		<path d="M52.188,86.95l-0.9,0.097l-0.565-5.238l1.263-0.135c1.009-0.11,1.57,0.262,1.69,1.379c0.092,0.844-0.198,1.22-0.488,1.391
			l1.018,2.291l-0.914,0.097l-0.872-2.101c-0.115,0.027-0.302,0.056-0.462,0.072L52.188,86.95z M51.877,84.062l0.319-0.034
			c0.485-0.052,0.647-0.252,0.58-0.877s-0.268-0.784-0.755-0.732l-0.318,0.034L51.877,84.062z"/>
		<path fill="#BB9753" d="M51.235,87.113l-0.577-5.357l1.322-0.142c0.113-0.013,0.221-0.02,0.321-0.02
			c0.871,0,1.326,0.462,1.434,1.453c0.091,0.841-0.196,1.235-0.473,1.419l1.03,2.316l-1.04,0.113l-0.87-2.098
			c-0.095,0.02-0.227,0.04-0.361,0.056l0.232,2.149L51.235,87.113z M50.788,81.86l0.553,5.122l0.782-0.085l-0.231-2.146l0.058-0.008
			c0.175-0.018,0.353-0.045,0.455-0.07l0.05-0.011l0.875,2.106l0.789-0.085l-1.006-2.266l0.046-0.027
			c0.376-0.221,0.53-0.669,0.459-1.331c-0.1-0.932-0.506-1.347-1.315-1.347c-0.096,0-0.2,0.007-0.309,0.018L50.788,81.86z
			 M51.824,84.128L51.638,82.4l0.378-0.042c0.531-0.058,0.75,0.145,0.82,0.786c0.036,0.333,0.008,0.547-0.094,0.692
			c-0.099,0.144-0.265,0.222-0.54,0.25L51.824,84.128z M51.768,82.504l0.162,1.493l0.26-0.027c0.238-0.026,0.379-0.088,0.456-0.199
			c0.081-0.119,0.104-0.313,0.072-0.613c-0.063-0.581-0.237-0.69-0.54-0.69c-0.046,0-0.095,0.003-0.149,0.009L51.768,82.504z"/>
	</g>
	<g>
		<path d="M59.704,85.378l-1.759-4.967l2.285-0.81l0.264,0.743l-1.432,0.507l0.453,1.28l1.101-0.39l0.263,0.742l-1.101,0.391
			l0.516,1.458l1.528-0.541l0.264,0.744L59.704,85.378z"/>
		<path fill="#BB9753" d="M59.668,85.454l-1.798-5.079l2.396-0.849l0.303,0.854l-1.432,0.508l0.414,1.169l1.101-0.391l0.302,0.854
			l-1.101,0.391l0.477,1.347l1.528-0.541l0.302,0.855L59.668,85.454z M58.021,80.447l1.719,4.855l2.27-0.802l-0.224-0.634
			l-1.528,0.542l-0.556-1.57l1.101-0.391l-0.223-0.631l-1.101,0.39l-0.493-1.392l1.431-0.507l-0.224-0.632L58.021,80.447z"/>
	</g>
	<g>
		<path d="M67.256,81.918l-2.861-4.426l0.705-0.455l2.563,1.932l0.012-0.008l-1.637-2.532l0.687-0.442l2.861,4.425l-0.662,0.428
			L66.168,78.7l-0.013,0.01l1.788,2.764L67.256,81.918z"/>
		<path fill="#BB9753" d="M67.238,81.999l-2.926-4.525l0.79-0.511l2.362,1.784l-1.509-2.334l0.785-0.509l2.927,4.524l-0.748,0.484
			l-2.549-1.979l1.652,2.558L67.238,81.999z M64.477,77.51l2.798,4.325l0.586-0.379l-1.788-2.765l0.087-0.054l0.045,0.017
			l2.723,2.112l0.577-0.372l-2.798-4.327l-0.587,0.38l1.637,2.532l-0.084,0.054l-0.045-0.016l-2.53-1.908L64.477,77.51z"/>
	</g>
	<g>
		<path d="M72.871,72.818l-0.297-0.283c-0.323-0.306-0.602-0.287-0.763-0.118c-0.251,0.265-0.194,0.479,0.092,0.752l1.937,1.84
			c0.286,0.27,0.504,0.316,0.755,0.052c0.227-0.237,0.164-0.448-0.085-0.684l-0.459-0.438l0.622-0.655l0.439,0.418
			c0.54,0.513,0.677,1.246,0.054,1.902c-0.653,0.689-1.395,0.588-1.934,0.076l-1.968-1.871c-0.54-0.513-0.678-1.248-0.024-1.935
			c0.623-0.656,1.402-0.521,1.972,0.021l0.281,0.266L72.871,72.818z"/>
		<path fill="#BB9753" d="M74.166,76.15c-0.342,0-0.68-0.147-0.976-0.428l-1.967-1.871c-0.495-0.469-0.761-1.246-0.025-2.02
			c0.284-0.3,0.624-0.458,0.98-0.458c0.368,0,0.75,0.171,1.075,0.479l0.323,0.308l-0.705,0.742l-0.34-0.323
			c-0.257-0.245-0.519-0.29-0.678-0.123c-0.111,0.119-0.156,0.222-0.141,0.324c0.017,0.101,0.089,0.21,0.23,0.345l1.937,1.84
			c0.284,0.271,0.452,0.284,0.671,0.056c0.188-0.197,0.164-0.366-0.082-0.602l-0.504-0.479l0.705-0.741l0.482,0.459
			c0.29,0.274,0.456,0.599,0.481,0.937c0.026,0.365-0.12,0.729-0.426,1.051C74.894,75.976,74.534,76.15,74.166,76.15z
			 M72.179,71.492c-0.328,0-0.629,0.143-0.896,0.421c-0.572,0.603-0.564,1.295,0.021,1.853l1.968,1.87
			c0.273,0.259,0.582,0.396,0.894,0.396c0.34,0,0.661-0.158,0.957-0.469c0.281-0.295,0.417-0.628,0.394-0.961
			c-0.022-0.306-0.177-0.604-0.444-0.859l-0.396-0.376l-0.543,0.57l0.418,0.397c0.184,0.175,0.394,0.444,0.087,0.768
			c-0.262,0.275-0.503,0.269-0.839-0.05l-1.937-1.842c-0.16-0.153-0.245-0.284-0.265-0.412c-0.021-0.14,0.034-0.278,0.172-0.423
			c0.202-0.214,0.536-0.174,0.845,0.119l0.254,0.241l0.542-0.572l-0.237-0.225C72.87,71.65,72.517,71.492,72.179,71.492z"/>
	</g>
	<g>
		<path d="M79.104,70.314l-4.553-2.658l1.224-2.093l0.681,0.397l-0.766,1.311l1.173,0.686l0.588-1.009l0.682,0.397l-0.59,1.009
			l1.338,0.78l0.816-1.399l0.682,0.397L79.104,70.314z"/>
		<path fill="#BB9753" d="M79.126,70.396l-4.654-2.718l1.282-2.195l0.783,0.456l-0.766,1.312l1.07,0.626l0.588-1.009l0.784,0.456
			l-0.59,1.01l1.235,0.721l0.816-1.399l0.784,0.457L79.126,70.396z M74.633,67.635l4.451,2.599l1.214-2.079l-0.579-0.338
			L78.9,69.216l-1.438-0.84l0.59-1.009l-0.579-0.339l-0.589,1.01l-1.274-0.745l0.766-1.311l-0.578-0.339L74.633,67.635z"/>
	</g>
</g>
<path fill="#FFFFFF" d="M20.166,67.043l0.356-0.199c0.388-0.22,0.453-0.489,0.338-0.694c-0.179-0.318-0.402-0.325-0.746-0.133
	l-2.328,1.311c-0.344,0.192-0.452,0.389-0.272,0.707c0.161,0.286,0.38,0.288,0.679,0.12l0.554-0.313l0.444,0.789l-0.528,0.297
	c-0.648,0.365-1.392,0.28-1.835-0.507c-0.466-0.827-0.153-1.506,0.496-1.872l2.366-1.331c0.649-0.367,1.392-0.282,1.857,0.545
	c0.444,0.789,0.086,1.492-0.601,1.879l-0.337,0.191L20.166,67.043z"/>
<path fill="#FFFFFF" d="M23.961,71.613c0.545-0.51,1.287-0.601,1.934,0.093c0.647,0.694,0.503,1.429-0.042,1.936l-1.987,1.851
	c-0.544,0.509-1.287,0.601-1.934-0.094s-0.502-1.428,0.042-1.935L23.961,71.613z M22.608,74.111
	c-0.289,0.268-0.347,0.483-0.099,0.75c0.249,0.268,0.467,0.225,0.756-0.045l1.955-1.822c0.289-0.268,0.348-0.483,0.099-0.75
	c-0.249-0.268-0.467-0.225-0.756,0.045L22.608,74.111z"/>
<path fill="#FFFFFF" d="M27.416,80.157l2.902-4.397l0.701,0.463l-0.74,3.122l0.012,0.009l1.66-2.516l0.682,0.449l-2.901,4.398
	l-0.658-0.435l0.851-3.383l-0.013-0.008l-1.813,2.748L27.416,80.157z"/>
<path fill="#FFFFFF" d="M34.974,84.305l1.808-4.951l2.372,0.867l-0.271,0.74l-1.522-0.556l-0.466,1.275l1.138,0.415l-0.271,0.741
	l-1.138-0.417l-0.801,2.194L34.974,84.305z"/>
<path fill="#FFFFFF" d="M42.879,86.279l0.646-5.229l2.405,0.296l-0.097,0.782l-1.507-0.185l-0.166,1.347l1.159,0.143l-0.097,0.784
	l-1.159-0.145l-0.19,1.536l1.608,0.198l-0.097,0.782L42.879,86.279z"/>
<path fill="#FFFFFF" d="M51.982,86.54l-0.899,0.097l-0.565-5.238l1.263-0.137c1.009-0.108,1.57,0.265,1.69,1.381
	c0.092,0.842-0.198,1.22-0.488,1.389L54,86.322l-0.914,0.099l-0.872-2.101c-0.115,0.027-0.303,0.055-0.462,0.072L51.982,86.54z
	 M51.671,83.651l0.32-0.034c0.485-0.052,0.647-0.253,0.581-0.877c-0.068-0.624-0.27-0.786-0.756-0.734l-0.318,0.036L51.671,83.651z"
	/>
<path fill="#FFFFFF" d="M59.345,85.021l-1.758-4.97l2.285-0.807l0.262,0.742l-1.431,0.506l0.453,1.28l1.101-0.391l0.263,0.745
	l-1.101,0.388l0.517,1.459l1.527-0.54l0.263,0.743L59.345,85.021z"/>
<path fill="#FFFFFF" d="M66.846,81.661l-2.861-4.425l0.705-0.456l2.563,1.933l0.012-0.009l-1.637-2.53l0.687-0.444l2.861,4.426
	l-0.662,0.429l-2.756-2.139l-0.012,0.007l1.788,2.765L66.846,81.661z"/>
<path fill="#FFFFFF" d="M72.408,72.663l-0.297-0.28c-0.321-0.308-0.601-0.29-0.761-0.121c-0.251,0.265-0.194,0.48,0.091,0.752
	l1.937,1.84c0.286,0.271,0.504,0.318,0.755,0.054c0.227-0.238,0.164-0.449-0.084-0.685l-0.461-0.438l0.624-0.656l0.439,0.417
	c0.539,0.513,0.676,1.248,0.054,1.905c-0.654,0.687-1.396,0.586-1.936,0.073l-1.967-1.87c-0.54-0.513-0.678-1.246-0.023-1.936
	c0.623-0.654,1.4-0.52,1.973,0.021l0.28,0.269L72.408,72.663z"/>
<path fill="#FFFFFF" d="M78.899,69.902l-4.552-2.656l1.223-2.093l0.681,0.397l-0.766,1.311l1.173,0.686l0.588-1.009l0.682,0.397
	l-0.59,1.009l1.336,0.78l0.818-1.401l0.682,0.399L78.899,69.902z"/>
<g>
</g>
<g>
</g>
<g>
</g>
<g>
</g>
<g>
</g>
<g>
</g>
</svg>
